<?xml version="1.0" encoding="UTF-8" standalone="no"?>
<!-- Created with Inkscape (http://www.inkscape.org/) -->
<svg
   xmlns:dc="http://purl.org/dc/elements/1.1/"
   xmlns:cc="http://creativecommons.org/ns#"
   xmlns:rdf="http://www.w3.org/1999/02/22-rdf-syntax-ns#"
   xmlns:svg="http://www.w3.org/2000/svg"
   xmlns="http://www.w3.org/2000/svg"
   xmlns:xlink="http://www.w3.org/1999/xlink"
   xmlns:sodipodi="http://sodipodi.sourceforge.net/DTD/sodipodi-0.dtd"
   xmlns:inkscape="http://www.inkscape.org/namespaces/inkscape"
   width="744.09448819"
   height="1052.3622047"
   id="svg2"
   sodipodi:version="0.32"
   inkscape:version="0.46"
   sodipodi:docname="navigationview.svg"
   inkscape:output_extension="org.inkscape.output.svg.inkscape">
  <defs
     id="defs4">
    <marker
       id="marker18095"
       orient="auto"
       markerHeight="5.7450776"
       markerWidth="4.6297302">
      <g
         id="g11064"
         transform="matrix(0.5,0,0,0.5,-185.64298,-257.19655)">
        <path
           sodipodi:nodetypes="csccccccsccssssssssssssssccc"
           id="path11050"
           d="M 370,508.65625 C 369.13933,508.715 368.39056,509.27755 368.09375,510.09375 C 367.82399,510.83551 368.03605,511.62868 368.53125,512.21875 L 366.78125,512.21875 C 366.73884,512.21408 366.69882,512.22093 366.65625,512.21875 L 366.65625,516.59375 L 366.78125,516.59375 L 368.53125,516.59375 C 367.85229,517.45345 367.83424,518.70924 368.625,519.5 C 369.47591,520.35091 370.89909,520.35091 371.75,519.5 L 375.09375,516.125 C 375.12672,516.09552 375.15802,516.06422 375.1875,516.03125 C 375.21972,516.01191 375.25101,515.99105 375.28125,515.96875 C 375.28162,515.96839 375.49976,515.68796 375.5,515.6875 C 375.50005,515.68741 375.49338,515.64282 375.5,515.625 C 375.5011,515.62203 375.53002,515.62832 375.53125,515.625 C 375.57039,515.57293 375.58228,515.57321 375.625,515.5 C 375.76199,515.26524 375.79184,515.12809 375.78125,515.15625 C 375.81807,515.06473 375.79977,515.04374 375.8125,515 C 375.82311,514.98978 375.83353,514.97936 375.84375,514.96875 C 375.90379,514.74477 375.93181,514.45186 375.90625,514.1875 C 375.89266,513.98387 375.84739,513.88985 375.84375,513.875 C 375.84389,513.86458 375.84389,513.85417 375.84375,513.84375 C 375.86975,513.94071 375.85901,513.85978 375.75,513.59375 C 375.69753,513.46336 375.66014,513.37439 375.625,513.3125 C 375.57262,513.22275 375.49154,513.05015 375.28125,512.84375 L 371.75,509.3125 C 371.29355,508.82579 370.66491,508.60087 370,508.65625 z"
           style="fill:#ffffff;fill-opacity:1;fill-rule:evenodd;stroke:none;stroke-width:2;stroke-linecap:round;stroke-linejoin:round;stroke-miterlimit:4;stroke-opacity:1" />
        <path
           sodipodi:nodetypes="cccscccsssssssscccsccc"
           id="path11035"
           d="M 366.65625,515.40625 L 371.28125,515.40625 L 369.46875,517.21875 C 369.0718,517.6157 369.0718,518.2593 369.46875,518.65625 C 369.8657,519.0532 370.5093,519.0532 370.90625,518.65625 L 374.34375,515.1875 L 374.4375,515.125 C 374.44343,515.11918 374.43171,515.09972 374.4375,515.09375 C 374.49291,515.03659 374.5526,514.97676 374.59375,514.90625 C 374.62239,514.85717 374.63663,514.80216 374.65625,514.75 C 374.66861,514.71928 374.67831,514.68783 374.6875,514.65625 C 374.71862,514.54015 374.73024,514.43132 374.71875,514.3125 C 374.71489,514.25466 374.70138,514.21285 374.6875,514.15625 C 374.6766,514.1156 374.67237,514.07059 374.65625,514.03125 C 374.63982,513.99042 374.61578,513.94505 374.59375,513.90625 C 374.5483,513.82838 374.50015,513.74899 374.4375,513.6875 L 370.90625,510.15625 C 370.69734,509.93349 370.39809,509.8184 370.09375,509.84375 C 369.69897,509.8707 369.35398,510.12813 369.21875,510.5 C 369.08351,510.87187 369.18349,511.28826 369.46875,511.5625 L 371.34375,513.40625 L 366.65625,513.40625"
           style="fill:#49c2f1;fill-opacity:1;fill-rule:evenodd;stroke:none;stroke-width:2;stroke-linecap:round;stroke-linejoin:round;stroke-miterlimit:4;stroke-dasharray:none;stroke-opacity:1" />
      </g>
    </marker>
    <marker
       id="marker52016"
       orient="auto"
       markerHeight="5.7450786"
       markerWidth="4.6297302">
      <g
         id="g52010"
         transform="matrix(0.5,0,0,0.5,-185.64299,-257.19655)">
        <path
           sodipodi:nodetypes="csccccccsccssssssssssssssccc"
           id="path52012"
           d="M 370,508.65625 C 369.13933,508.715 368.39056,509.27755 368.09375,510.09375 C 367.82399,510.83551 368.03605,511.62868 368.53125,512.21875 L 366.78125,512.21875 C 366.73884,512.21408 366.69882,512.22093 366.65625,512.21875 L 366.65625,516.59375 L 366.78125,516.59375 L 368.53125,516.59375 C 367.85229,517.45345 367.83424,518.70924 368.625,519.5 C 369.47591,520.35091 370.89909,520.35091 371.75,519.5 L 375.09375,516.125 C 375.12672,516.09552 375.15802,516.06422 375.1875,516.03125 C 375.21972,516.01191 375.25101,515.99105 375.28125,515.96875 C 375.28162,515.96839 375.49976,515.68796 375.5,515.6875 C 375.50005,515.68741 375.49338,515.64282 375.5,515.625 C 375.5011,515.62203 375.53002,515.62832 375.53125,515.625 C 375.57039,515.57293 375.58228,515.57321 375.625,515.5 C 375.76199,515.26524 375.79184,515.12809 375.78125,515.15625 C 375.81807,515.06473 375.79977,515.04374 375.8125,515 C 375.82311,514.98978 375.83353,514.97936 375.84375,514.96875 C 375.90379,514.74477 375.93181,514.45186 375.90625,514.1875 C 375.89266,513.98387 375.84739,513.88985 375.84375,513.875 C 375.84389,513.86458 375.84389,513.85417 375.84375,513.84375 C 375.86975,513.94071 375.85901,513.85978 375.75,513.59375 C 375.69753,513.46336 375.66014,513.37439 375.625,513.3125 C 375.57262,513.22275 375.49154,513.05015 375.28125,512.84375 L 371.75,509.3125 C 371.29355,508.82579 370.66491,508.60087 370,508.65625 z"
           style="fill:#ffffff;fill-opacity:1;fill-rule:evenodd;stroke:none;stroke-width:2;stroke-linecap:round;stroke-linejoin:round;stroke-miterlimit:4;stroke-opacity:1" />
        <path
           sodipodi:nodetypes="cccscccsssssssscccsccc"
           id="path52014"
           d="M 366.65625,515.40625 L 371.28125,515.40625 L 369.46875,517.21875 C 369.0718,517.6157 369.0718,518.2593 369.46875,518.65625 C 369.8657,519.0532 370.5093,519.0532 370.90625,518.65625 L 374.34375,515.1875 L 374.4375,515.125 C 374.44343,515.11918 374.43171,515.09972 374.4375,515.09375 C 374.49291,515.03659 374.5526,514.97676 374.59375,514.90625 C 374.62239,514.85717 374.63663,514.80216 374.65625,514.75 C 374.66861,514.71928 374.67831,514.68783 374.6875,514.65625 C 374.71862,514.54015 374.73024,514.43132 374.71875,514.3125 C 374.71489,514.25466 374.70138,514.21285 374.6875,514.15625 C 374.6766,514.1156 374.67237,514.07059 374.65625,514.03125 C 374.63982,513.99042 374.61578,513.94505 374.59375,513.90625 C 374.5483,513.82838 374.50015,513.74899 374.4375,513.6875 L 370.90625,510.15625 C 370.69734,509.93349 370.39809,509.8184 370.09375,509.84375 C 369.69897,509.8707 369.35398,510.12813 369.21875,510.5 C 369.08351,510.87187 369.18349,511.28826 369.46875,511.5625 L 371.34375,513.40625 L 366.65625,513.40625"
           style="fill:#f39300;fill-opacity:1;fill-rule:evenodd;stroke:none;stroke-width:2;stroke-linecap:round;stroke-linejoin:round;stroke-miterlimit:4;stroke-dasharray:none;stroke-opacity:1" />
      </g>
    </marker>
    <inkscape:perspective
       sodipodi:type="inkscape:persp3d"
       inkscape:vp_x="0 : 526.18109 : 1"
       inkscape:vp_y="0 : 1000 : 0"
       inkscape:vp_z="744.09448 : 526.18109 : 1"
       inkscape:persp3d-origin="372.04724 : 350.78739 : 1"
       id="perspective10" />
    <inkscape:perspective
       id="perspective2481"
       inkscape:persp3d-origin="372.04724 : 350.78739 : 1"
       inkscape:vp_z="744.09448 : 526.18109 : 1"
       inkscape:vp_y="0 : 1000 : 0"
       inkscape:vp_x="0 : 526.18109 : 1"
       sodipodi:type="inkscape:persp3d" />
  </defs>
  <sodipodi:namedview
     id="base"
     pagecolor="#ffffff"
     bordercolor="#666666"
     borderopacity="1.0"
     gridtolerance="10000"
     guidetolerance="10"
     objecttolerance="10"
     inkscape:pageopacity="0.0"
     inkscape:pageshadow="2"
     inkscape:zoom="0.98994949"
     inkscape:cx="231.90561"
     inkscape:cy="767.86762"
     inkscape:document-units="px"
     inkscape:current-layer="layer1"
     showgrid="false"
     inkscape:window-width="1680"
     inkscape:window-height="1026"
     inkscape:window-x="1280"
     inkscape:window-y="0" />
  <metadata
     id="metadata7">
    <rdf:RDF>
      <cc:Work
         rdf:about="">
        <dc:format>image/svg+xml</dc:format>
        <dc:type
           rdf:resource="http://purl.org/dc/dcmitype/StillImage" />
      </cc:Work>
    </rdf:RDF>
  </metadata>
  <g
     inkscape:label="Layer 1"
     inkscape:groupmode="layer"
     id="layer1">
    <image
       y="98.0774"
       x="125.43011"
       id="image2483"
       height="520.71429"
       width="370.28571"
       sodipodi:absref="/home/magi/itmill/doc/manual/img/mobile/SC20110608-194209.png"
       xlink:href="/home/magi/itmill/doc/manual/img/mobile/SC20110608-194209.png" />
    <path
       sodipodi:nodetypes="cc"
       style="opacity:1;fill:none;fill-opacity:1;fill-rule:evenodd;stroke:#49c2f1;stroke-width:8;stroke-linecap:round;stroke-linejoin:round;marker-start:none;marker-mid:none;marker-end:url(#marker18095);stroke-miterlimit:4;stroke-dasharray:none;stroke-opacity:1;display:inline"
       d="M 547.35645,592.35494 L 503.97193,592.17671"
       id="path13159"
       inkscape:connector-type="polyline" />
    <text
       xml:space="preserve"
       style="font-size:24px;font-style:normal;font-variant:normal;font-weight:300;font-stretch:normal;text-align:start;line-height:125%;writing-mode:lr-tb;text-anchor:start;fill:#000000;fill-opacity:1;stroke:none;stroke-width:1px;stroke-linecap:butt;stroke-linejoin:miter;stroke-opacity:1;font-family:Helvetica LT Std;-inkscape-font-specification:Helvetica LT Std Light"
       x="554.00513"
       y="131.03226"
       id="text13161"
       sodipodi:linespacing="125%"><tspan
         sodipodi:role="line"
         id="tspan13163"
         x="554.00513"
         y="131.03226">Navigation bar</tspan></text>
    <text
       xml:space="preserve"
       style="font-size:24px;font-style:normal;font-variant:normal;font-weight:300;font-stretch:normal;text-align:start;line-height:125%;writing-mode:lr-tb;text-anchor:start;fill:#000000;fill-opacity:1;stroke:none;stroke-width:1px;stroke-linecap:butt;stroke-linejoin:miter;stroke-opacity:1;font-family:Helvetica LT Std;-inkscape-font-specification:Helvetica LT Std Light"
       x="557.23236"
       y="356.69727"
       id="text13165"
       sodipodi:linespacing="125%"><tspan
         sodipodi:role="line"
         id="tspan13167"
         x="557.23236"
         y="356.69727">Content area</tspan></text>
    <text
       xml:space="preserve"
       style="font-size:24px;font-style:normal;font-variant:normal;font-weight:300;font-stretch:normal;text-align:start;line-height:125%;writing-mode:lr-tb;text-anchor:start;fill:#000000;fill-opacity:1;stroke:none;stroke-width:1px;stroke-linecap:butt;stroke-linejoin:miter;stroke-opacity:1;font-family:Helvetica LT Std;-inkscape-font-specification:Helvetica LT Std Light"
       x="555.51715"
       y="599.36383"
       id="text13169"
       sodipodi:linespacing="125%"><tspan
         sodipodi:role="line"
         id="tspan13171"
         x="555.51715"
         y="599.36383">Toolbar</tspan></text>
    <rect
       style="opacity:1;fill:none;fill-opacity:1;fill-rule:evenodd;stroke:#ffae31;stroke-width:3.54299998;stroke-linecap:round;stroke-linejoin:round;marker:none;marker-start:none;marker-mid:none;marker-end:none;stroke-miterlimit:4;stroke-dasharray:3.543, 7.086;stroke-dashoffset:0;stroke-opacity:1;visibility:visible;display:inline;overflow:visible;enable-background:accumulate"
       id="rect2398"
       width="98.994942"
       height="45.456867"
       x="129.29953"
       y="99.78833"
       ry="13.788073" />
    <rect
       style="opacity:1;fill:none;fill-opacity:1;fill-rule:evenodd;stroke:#ffae31;stroke-width:3.54299998;stroke-linecap:round;stroke-linejoin:round;marker:none;marker-start:none;marker-mid:none;marker-end:none;stroke-miterlimit:4;stroke-dasharray:3.543, 7.086;stroke-dashoffset:0;stroke-opacity:1;visibility:visible;display:inline;overflow:visible;enable-background:accumulate"
       id="rect3196"
       width="98.994942"
       height="45.456867"
       x="389.29953"
       y="99.78833"
       ry="13.788073" />
    <rect
       style="opacity:1;fill:none;fill-opacity:1;fill-rule:evenodd;stroke:#ffae31;stroke-width:3.54299998;stroke-linecap:round;stroke-linejoin:round;marker:none;marker-start:none;marker-mid:none;marker-end:none;stroke-miterlimit:4;stroke-dasharray:3.543, 7.086;stroke-dashoffset:0;stroke-opacity:1;visibility:visible;display:inline;overflow:visible;enable-background:accumulate"
       id="rect3198"
       width="381.83765"
       height="57.578674"
       x="119.198"
       y="565.97369"
       ry="13.788073" />
    <path
       sodipodi:nodetypes="cc"
       style="opacity:1;fill:none;fill-opacity:1;fill-rule:evenodd;stroke:#49c2f1;stroke-width:8;stroke-linecap:round;stroke-linejoin:round;marker-start:none;marker-mid:none;marker-end:url(#marker18095);stroke-miterlimit:4;stroke-dasharray:none;stroke-opacity:1;display:inline"
       d="M 543.194,122.634 L 515.97193,122.45577"
       id="path3202"
       inkscape:connector-type="polyline" />
    <path
       sodipodi:nodetypes="cc"
       style="opacity:1;fill:none;fill-opacity:1;fill-rule:evenodd;stroke:#49c2f1;stroke-width:5;stroke-linecap:round;stroke-linejoin:round;marker-start:none;marker-mid:none;marker-end:url(#marker18095);stroke-miterlimit:4;stroke-dasharray:none;stroke-opacity:1;display:inline"
       d="M 102.69288,80.755702 L 122.94797,99.770372"
       id="path3204"
       inkscape:connector-type="polyline" />
    <path
       sodipodi:nodetypes="cc"
       style="opacity:1;fill:none;fill-opacity:1;fill-rule:evenodd;stroke:#49c2f1;stroke-width:5;stroke-linecap:round;stroke-linejoin:round;marker-start:none;marker-mid:none;marker-end:url(#marker18095);stroke-miterlimit:4;stroke-dasharray:none;stroke-opacity:1;display:inline"
       d="M 525.08128,79.347837 L 492.80844,95.332049"
       id="path3206"
       inkscape:connector-type="polyline" />
    <text
       xml:space="preserve"
       style="font-size:18px;font-style:normal;font-variant:normal;font-weight:300;font-stretch:normal;text-align:start;line-height:125%;writing-mode:lr-tb;text-anchor:start;fill:#000000;fill-opacity:1;stroke:none;stroke-width:1px;stroke-linecap:butt;stroke-linejoin:miter;stroke-opacity:1;font-family:Helvetica LT Std;-inkscape-font-specification:Helvetica LT Std Light"
       x="525.71918"
       y="76.861908"
       id="text3208"
       sodipodi:linespacing="125%"><tspan
         sodipodi:role="line"
         id="tspan3210"
         x="525.71918"
         y="76.861908">Right component slot</tspan></text>
    <text
       xml:space="preserve"
       style="font-size:18px;font-style:normal;font-variant:normal;font-weight:300;font-stretch:normal;text-align:start;line-height:125%;writing-mode:lr-tb;text-anchor:start;fill:#000000;fill-opacity:1;stroke:none;stroke-width:1px;stroke-linecap:butt;stroke-linejoin:miter;stroke-opacity:1;font-family:Helvetica LT Std;-inkscape-font-specification:Helvetica LT Std Light"
       x="7.6843863"
       y="76.355911"
       id="text3212"
       sodipodi:linespacing="125%"><tspan
         sodipodi:role="line"
         id="tspan3214"
         x="7.6843863"
         y="76.355911">Left component slot</tspan></text>
    <path
       sodipodi:nodetypes="cc"
       style="opacity:1;fill:none;fill-opacity:1;fill-rule:evenodd;stroke:#49c2f1;stroke-width:5;stroke-linecap:round;stroke-linejoin:round;marker-start:none;marker-mid:none;marker-end:url(#marker18095);stroke-miterlimit:4;stroke-dasharray:none;stroke-opacity:1;display:inline"
       d="M 103.30183,544.20457 L 112.44525,561.19895"
       id="path3220"
       inkscape:connector-type="polyline" />
    <text
       xml:space="preserve"
       style="font-size:18px;font-style:normal;font-variant:normal;font-weight:300;font-stretch:normal;text-align:start;line-height:125%;writing-mode:lr-tb;text-anchor:start;fill:#000000;fill-opacity:1;stroke:none;stroke-width:1px;stroke-linecap:butt;stroke-linejoin:miter;stroke-opacity:1;font-family:Helvetica LT Std;-inkscape-font-specification:Helvetica LT Std Light"
       x="12.410248"
       y="538.17017"
       id="text3222"
       sodipodi:linespacing="125%"><tspan
         sodipodi:role="line"
         id="tspan3224"
         x="12.410248"
         y="538.17017">Toolbar slot</tspan></text>
    <path
       style="fill:none;fill-rule:evenodd;stroke:#49c2f1;stroke-width:5;stroke-linecap:butt;stroke-linejoin:miter;stroke-opacity:1;stroke-miterlimit:4;stroke-dasharray:none"
       d="M 504.06612,148.27566 C 557.60421,148.27566 495.64733,343.37776 550.53314,348.28586 C 496.99506,350.30617 557.60421,566.47881 503.05597,565.46866"
       id="path3226"
       sodipodi:nodetypes="ccc" />
  </g>
</svg>
