<?xml version="1.0" encoding="UTF-8" standalone="no"?>
<!-- Created with Inkscape (http://www.inkscape.org/) -->
<svg
   xmlns:dc="http://purl.org/dc/elements/1.1/"
   xmlns:cc="http://creativecommons.org/ns#"
   xmlns:rdf="http://www.w3.org/1999/02/22-rdf-syntax-ns#"
   xmlns:svg="http://www.w3.org/2000/svg"
   xmlns="http://www.w3.org/2000/svg"
   xmlns:xlink="http://www.w3.org/1999/xlink"
   xmlns:sodipodi="http://sodipodi.sourceforge.net/DTD/sodipodi-0.dtd"
   xmlns:inkscape="http://www.inkscape.org/namespaces/inkscape"
   version="1.0"
   width="250"
   height="300"
   id="svg2"
   sodipodi:version="0.32"
   inkscape:version="0.46"
   sodipodi:docname="Pig-RoundCartoon.svg"
   inkscape:output_extension="org.inkscape.output.svg.inkscape">
  <metadata
     id="metadata2492">
    <rdf:RDF>
      <cc:Work
         rdf:about="">
        <dc:format>image/svg+xml</dc:format>
        <dc:type
           rdf:resource="http://purl.org/dc/dcmitype/StillImage" />
      </cc:Work>
    </rdf:RDF>
  </metadata>
  <sodipodi:namedview
     inkscape:window-height="701"
     inkscape:window-width="1224"
     inkscape:pageshadow="2"
     inkscape:pageopacity="0.0"
     guidetolerance="10.0"
     gridtolerance="10.0"
     objecttolerance="10.0"
     borderopacity="1.0"
     bordercolor="#666666"
     pagecolor="#ffffff"
     id="base"
     showgrid="false"
     inkscape:zoom="0.76682026"
     inkscape:cx="236.38405"
     inkscape:cy="148.92676"
     inkscape:window-x="52"
     inkscape:window-y="-4"
     inkscape:current-layer="svg2" />
  <defs
     id="defs4">
    <inkscape:perspective
       sodipodi:type="inkscape:persp3d"
       inkscape:vp_x="0 : 127.13264 : 1"
       inkscape:vp_y="0 : 1000 : 0"
       inkscape:vp_z="224.65625 : 127.13264 : 1"
       inkscape:persp3d-origin="112.32812 : 84.755096 : 1"
       id="perspective2494" />
    <linearGradient
       gradientUnits="userSpaceOnUse"
       y2="16.656706"
       x2="-785.38751"
       y1="16.878105"
       x1="-776.61304"
       id="linearGradient3825"
       xlink:href="#linearGradient3819"
       inkscape:collect="always" />
    <radialGradient
       gradientUnits="userSpaceOnUse"
       gradientTransform="matrix(0.517926,2.4443536e-8,-3.9212833e-8,0.4489316,-208.63166,-91.522765)"
       r="100.02526"
       fy="-155.89888"
       fx="-411.91803"
       cy="-155.89888"
       cx="-411.91803"
       id="radialGradient3793"
       xlink:href="#linearGradient3787"
       inkscape:collect="always" />
    <radialGradient
       gradientUnits="userSpaceOnUse"
       gradientTransform="matrix(0.2121045,-0.4430781,1.0102174,0.4835979,-531.22787,-450.2596)"
       r="115.36326"
       fy="-94.644592"
       fx="-813.12628"
       cy="-94.644592"
       cx="-813.12628"
       id="radialGradient3783"
       xlink:href="#linearGradient3777"
       inkscape:collect="always" />
    <inkscape:perspective
       id="perspective2915"
       inkscape:persp3d-origin="372.04724 : 350.78739 : 1"
       inkscape:vp_z="744.09448 : 526.18109 : 1"
       inkscape:vp_y="0 : 1000 : 0"
       inkscape:vp_x="0 : 526.18109 : 1"
       sodipodi:type="inkscape:persp3d" />
    <linearGradient
       id="linearGradient3777"
       inkscape:collect="always">
      <stop
         id="stop3779"
         offset="0"
         style="stop-color:#e9c6af;stop-opacity:1" />
      <stop
         id="stop3781"
         offset="1"
         style="stop-color:#ffb380;stop-opacity:0;" />
    </linearGradient>
    <linearGradient
       id="linearGradient3787"
       inkscape:collect="always">
      <stop
         id="stop3789"
         offset="0"
         style="stop-color:#e9c6af;stop-opacity:1;" />
      <stop
         id="stop3791"
         offset="1"
         style="stop-color:#e9c6af;stop-opacity:0;" />
    </linearGradient>
    <linearGradient
       id="linearGradient3805">
      <stop
         id="stop3807"
         offset="0"
         style="stop-color:#ffffff;stop-opacity:1;" />
      <stop
         id="stop3809"
         offset="1"
         style="stop-color:#000000;stop-opacity:1" />
    </linearGradient>
    <linearGradient
       id="linearGradient3819"
       inkscape:collect="always">
      <stop
         id="stop3821"
         offset="0"
         style="stop-color:#ffffff;stop-opacity:1;" />
      <stop
         id="stop3823"
         offset="1"
         style="stop-color:#ffffff;stop-opacity:0;" />
    </linearGradient>
    <inkscape:perspective
       id="perspective2791"
       inkscape:persp3d-origin="372.04724 : 350.78739 : 1"
       inkscape:vp_z="744.09448 : 526.18109 : 1"
       inkscape:vp_y="0 : 1000 : 0"
       inkscape:vp_x="0 : 526.18109 : 1"
       sodipodi:type="inkscape:persp3d" />
    <linearGradient
       y2="501.29077"
       x2="320.22107"
       y1="215.21931"
       x1="-60.221073"
       gradientUnits="userSpaceOnUse"
       id="linearGradient3222"
       xlink:href="#linearGradient3161"
       inkscape:collect="always" />
    <linearGradient
       y2="537.005"
       x2="393.21429"
       y1="180.93361"
       x1="-133.21428"
       gradientUnits="userSpaceOnUse"
       id="linearGradient3220"
       xlink:href="#linearGradient3169"
       inkscape:collect="always" />
    <linearGradient
       y2="602.7193"
       x2="393.21429"
       y1="544.86218"
       x1="-133.21428"
       gradientTransform="matrix(1.17318,0,0,1.22714,-28.2282,-58.9006)"
       gradientUnits="userSpaceOnUse"
       id="linearGradient3218"
       xlink:href="#linearGradient3169"
       inkscape:collect="always" />
    <linearGradient
       id="linearGradient3161">
      <stop
         id="stop3163"
         offset="0"
         style="stop-color: rgb(0, 190, 255); stop-opacity: 1;" />
      <stop
         id="stop3165"
         offset="1"
         style="stop-color: rgb(0, 116, 255); stop-opacity: 1;" />
    </linearGradient>
    <linearGradient
       id="linearGradient3169">
      <stop
         id="stop3171"
         offset="0"
         style="stop-color: rgb(212, 212, 212); stop-opacity: 1;" />
      <stop
         id="stop3173"
         offset="1"
         style="stop-color: rgb(159, 150, 150); stop-opacity: 1;" />
    </linearGradient>
    <linearGradient
       id="linearGradient3274">
      <stop
         id="stop3276"
         offset="0"
         style="stop-color: rgb(255, 0, 0); stop-opacity: 1;" />
      <stop
         id="stop3278"
         offset="1"
         style="stop-color: rgb(255, 98, 98); stop-opacity: 1;" />
    </linearGradient>
    <inkscape:perspective
       id="perspective32"
       inkscape:persp3d-origin="372.04724 : 350.78739 : 1"
       inkscape:vp_z="744.09448 : 526.18109 : 1"
       inkscape:vp_y="0 : 1000 : 0"
       inkscape:vp_x="0 : 526.18109 : 1"
       sodipodi:type="inkscape:persp3d" />
  </defs>
  <g
     inkscape:label="Layer 1"
     id="g2927"
     transform="translate(-374.99947,-33.286432)" />
  <g
     id="g4340"
     inkscape:export-filename="C:\D\GFX\Inkscape\InkscapeWORK\PIGicon.png"
     inkscape:export-xdpi="87.989998"
     inkscape:export-ydpi="87.989998"
     transform="matrix(0.8904318,0,0,0.9307385,500.34631,38.324319)">
    <path
       id="path2980"
       d="M -304.78001,60.334068 C -307.528,60.273418 -310.30708,60.871841 -312.84296,62.209797 C -314.01902,62.831829 -314.45336,64.262415 -313.81308,65.405037 C -313.17281,66.547659 -311.70037,66.969595 -310.52439,66.347438 C -304.85635,63.356917 -297.3627,65.537949 -294.41744,71.68959 C -291.79265,77.171833 -293.7075,84.387352 -298.94101,88.617135 C -298.98367,86.807227 -299.20247,85.011495 -299.75487,83.284177 C -302.52663,74.617104 -311.19382,70.287535 -318.08577,72.995245 C -325.23561,75.804286 -327.11624,84.912382 -321.98474,91.053744 C -321.70394,91.389807 -321.40331,91.711073 -321.09516,92.019193 C -323.57541,90.974708 -326.27052,90.758696 -328.75118,91.660599 C -331.86636,92.793196 -333.90601,95.461401 -334.38199,98.400354 C -334.85087,101.29545 -333.84484,104.46983 -331.3915,106.92389 C -333.77538,105.92782 -336.42087,105.7874 -338.81092,106.80436 C -344.30876,109.14368 -345.55271,116.43726 -341.2052,121.05623 C -338.95195,123.45019 -335.74069,124.77994 -332.25269,125.00079 C -332.78521,125.50198 -333.3536,125.97163 -334.0129,126.34322 C -337.69793,128.42004 -342.19228,127.47413 -344.08211,124.98239 C -344.59179,124.29444 -345.44279,123.92581 -346.31012,124.01733 C -347.17745,124.10882 -347.92718,124.64633 -348.273,125.42452 C -348.61881,126.20274 -348.50733,127.1015 -347.98111,127.77759 C -344.40405,132.49391 -337.24842,133.6015 -331.58078,130.4073 C -328.88534,128.88818 -326.92022,126.63004 -325.69445,124.0813 C -324.20164,123.58387 -322.72432,122.93577 -321.33176,122.02168 C -316.76623,119.02484 -313.86193,114.37272 -312.89973,109.48003 C -311.42251,108.88298 -309.96901,108.16727 -308.58436,107.20893 C -304.10089,104.10582 -301.08801,99.585789 -299.72648,94.740841 C -299.10553,94.438802 -298.49036,94.11761 -297.89055,93.747807 C -289.46067,88.55052 -286.02509,78.06075 -290.02634,69.703523 C -292.84118,63.824307 -298.73445,60.4675 -304.78001,60.334068 L -304.78001,60.334068 z M -313.089,76.96738 C -309.6954,77.298009 -305.93437,79.829347 -304.38254,84.681779 C -303.72282,86.744699 -303.63439,89.026598 -303.97561,91.311198 C -309.47208,93.042322 -315.3156,91.578237 -318.22772,88.093033 C -321.60658,84.049231 -320.36883,78.973594 -316.26876,77.362754 C -315.3145,76.987844 -314.22021,76.85717 -313.089,76.96738 z M -316.76085,95.044269 C -313.44411,96.634368 -309.52837,97.141742 -305.6128,96.533817 C -306.91218,99.188279 -308.84378,101.60894 -311.39503,103.37472 C -311.79619,103.65237 -312.2145,103.85708 -312.6253,104.09191 C -312.72718,103.1383 -312.9104,102.20196 -313.17418,101.27831 C -313.89017,98.771233 -315.18037,96.694327 -316.76085,95.044269 z M -325.92158,95.825821 C -323.10948,95.58999 -319.2306,97.658526 -317.8397,102.5288 C -317.53328,103.60177 -317.43025,104.75451 -317.44223,105.92166 C -321.68846,106.77533 -325.72554,105.80386 -327.87106,103.71492 C -329.39788,102.22836 -329.83161,100.54819 -329.60289,99.135939 C -329.37417,97.723676 -328.54066,96.607675 -327.04774,96.064886 C -326.69991,95.938422 -326.3233,95.859512 -325.92158,95.825821 z M -327.69125,109.46164 C -324.9471,110.77431 -321.71927,111.28297 -318.36966,110.90522 C -319.43878,113.73891 -321.36965,116.35595 -324.04778,118.1139 C -324.12883,118.1671 -324.2123,118.20077 -324.29385,118.25183 C -324.27385,116.82114 -324.44828,115.38648 -324.8995,114.01304 C -325.49286,112.20706 -326.49138,110.69913 -327.69125,109.46164 z M -334.9498,110.82247 C -332.87361,110.96506 -330.50708,112.43607 -329.51772,115.44743 C -329.04283,116.89289 -329.03066,118.52753 -329.41362,120.11836 C -332.79789,120.58521 -335.95594,119.65129 -337.62798,117.87485 C -340.08332,115.26619 -339.27894,112.14534 -336.86144,111.1167 C -336.2945,110.87547 -335.64185,110.77493 -334.9498,110.82247 z"
       style="font-size:medium;font-style:normal;font-variant:normal;font-weight:normal;font-stretch:normal;text-indent:0;text-align:start;text-decoration:none;line-height:normal;letter-spacing:normal;word-spacing:normal;text-transform:none;direction:ltr;block-progression:tb;writing-mode:lr-tb;text-anchor:start;fill:#ffaaaa;fill-opacity:1;stroke:#000000;stroke-width:1.79101098;marker:none;visibility:visible;display:inline;overflow:visible;enable-background:accumulate;font-family:Bitstream Vera Sans;-inkscape-font-specification:Bitstream Vera Sans" />
    <path
       d="M -328.23695,131.25746 C -328.21892,191.76569 -377.26546,240.82687 -437.7737,240.82687 C -498.28193,240.82687 -547.32848,191.76569 -547.31044,131.25746 C -547.32848,70.74923 -498.28193,21.688057 -437.7737,21.688057 C -377.26546,21.688057 -328.21892,70.74923 -328.23695,131.25746 z"
       id="path2383"
       style="fill:#ffaaaa;fill-opacity:1;fill-rule:nonzero;stroke:#000000;stroke-width:4;stroke-linecap:round;stroke-linejoin:round;stroke-miterlimit:4;stroke-dasharray:none;stroke-opacity:1" />
    <path
       d="M -334.85923,93.676599 C -334.78244,95.358209 -334.73423,97.069889 -334.73423,98.770349 C -334.73423,159.23463 -383.80119,208.3016 -444.26548,208.3016 C -491.52765,208.3016 -531.85668,178.30233 -547.20298,136.33285 C -544.54947,194.44504 -496.52935,240.8016 -437.76548,240.8016 C -377.30119,240.8016 -328.23423,191.73463 -328.23423,131.27035 C -328.23423,118.06817 -330.57238,105.40032 -334.85923,93.676599 z"
       id="path3221"
       style="fill:#000000;fill-opacity:0.31372549;fill-rule:nonzero;stroke:none;stroke-width:4;stroke-linecap:round;stroke-linejoin:round;stroke-miterlimit:4;stroke-dasharray:none;stroke-opacity:1" />
    <path
       d="M -429.59342,241.82709 C -429.59342,250.91787 -414.92809,251.20844 -396.85831,251.20844 C -378.78853,251.20844 -364.12319,251.90193 -364.12319,241.82709 C -364.12319,224.11115 -378.78853,209.73299 -396.85831,209.73299 C -414.92809,209.73299 -429.59342,224.11115 -429.59342,241.82709 z"
       id="path3172"
       style="fill:#412424;fill-opacity:1;fill-rule:nonzero;stroke:#000000;stroke-width:3.99999976;stroke-linecap:round;stroke-linejoin:round;stroke-miterlimit:4;stroke-opacity:1" />
    <path
       d="M -384.26788,250.6075 C -384.26788,234.23994 -393.71071,224.16759 -393.71071,224.16759 C -393.71071,224.16759 -389.93358,238.01707 -390.5631,250.6075 L -384.26788,250.6075 z"
       id="path3174"
       style="fill:#000000;fill-opacity:0.31372549;fill-rule:evenodd;stroke:#000000;stroke-width:4;stroke-linecap:butt;stroke-linejoin:round;stroke-miterlimit:4;stroke-dasharray:none;stroke-opacity:1" />
    <path
       d="M -444.59123,241.82709 C -444.59123,250.91787 -459.25656,251.20844 -477.32634,251.20844 C -495.39612,251.20844 -510.06146,251.90193 -510.06146,241.82709 C -510.06146,224.11115 -495.39612,209.73299 -477.32634,209.73299 C -459.25656,209.73299 -444.59123,224.11115 -444.59123,241.82709 z"
       id="path3329"
       style="fill:#412424;fill-opacity:1;fill-rule:nonzero;stroke:#000000;stroke-width:3.99999976;stroke-linecap:round;stroke-linejoin:round;stroke-miterlimit:4;stroke-opacity:1" />
    <path
       d="M -489.91677,250.6075 C -489.91677,234.23994 -480.47394,224.16759 -480.47394,224.16759 C -480.47394,224.16759 -484.25107,238.01707 -483.62155,250.6075 L -489.91677,250.6075 z"
       id="path3331"
       style="fill:#000000;fill-opacity:0.31372549;fill-rule:evenodd;stroke:#000000;stroke-width:4;stroke-linecap:butt;stroke-linejoin:round;stroke-miterlimit:4;stroke-dasharray:none;stroke-opacity:1" />
    <g
       transform="matrix(-1,0,0,1,-875.43997,0)"
       id="g4318">
      <path
         sodipodi:nodetypes="csssc"
         style="fill:#ffaaaa;fill-opacity:1;fill-rule:nonzero;stroke:#000000;stroke-width:3.7822125;stroke-linecap:round;stroke-linejoin:round;stroke-miterlimit:4;stroke-opacity:1"
         id="path4320"
         d="M -411.76872,11.247847 C -418.80629,17.65285 -411.23986,27.703751 -401.63978,39.835645 C -392.0397,51.967539 -384.78519,62.30233 -376.98582,55.203999 C -363.27113,42.722052 -343.88869,8.1445442 -353.48877,-3.9873493 C -363.08885,-16.119244 -398.05404,-1.2341002 -411.76872,11.247847 z" />
      <path
         id="path4322"
         d="M -385.21916,9.4401857 C -379.76773,5.4525424 -365.61658,2.5229976 -357.32477,1.1410296"
         style="fill:none;fill-rule:evenodd;stroke:#000000;stroke-width:3.5;stroke-linecap:round;stroke-linejoin:round;stroke-miterlimit:4;stroke-dasharray:none;stroke-opacity:1" />
    </g>
    <g
       id="g4314">
      <path
         d="M -411.76872,11.247847 C -418.80629,17.65285 -411.23986,27.703751 -401.63978,39.835645 C -392.0397,51.967539 -384.78519,62.30233 -376.98582,55.203999 C -363.27113,42.722052 -343.88869,8.1445442 -353.48877,-3.9873493 C -363.08885,-16.119244 -398.05404,-1.2341002 -411.76872,11.247847 z"
         id="path4310"
         style="fill:#ffaaaa;fill-opacity:1;fill-rule:nonzero;stroke:#000000;stroke-width:3.7822125;stroke-linecap:round;stroke-linejoin:round;stroke-miterlimit:4;stroke-opacity:1"
         sodipodi:nodetypes="csssc" />
      <path
         style="fill:none;fill-rule:evenodd;stroke:#000000;stroke-width:3.5;stroke-linecap:round;stroke-linejoin:round;stroke-miterlimit:4;stroke-dasharray:none;stroke-opacity:1"
         d="M -385.21916,9.4401857 C -379.76773,5.4525424 -365.61658,2.5229976 -357.32477,1.1410296"
         id="path4312" />
    </g>
    <path
       style="fill:#ffaaaa;fill-opacity:1;fill-rule:nonzero;stroke:#000000;stroke-width:3.03129601;stroke-linecap:round;stroke-linejoin:round;stroke-miterlimit:4;stroke-dasharray:none;stroke-opacity:1"
       id="path4252"
       d="M -354.39725,76.487883 C -354.38353,122.14071 -391.71645,159.15685 -437.7737,159.15685 C -483.83094,159.15685 -521.16386,122.14071 -521.15014,76.487883 C -521.16386,30.835058 -483.83094,-6.1810832 -437.7737,-6.1810832 C -391.71645,-6.1810832 -354.38353,30.835058 -354.39725,76.487883 z" />
    <path
       style="fill:#ffaaaa;fill-opacity:1;fill-rule:nonzero;stroke:#000000;stroke-width:2.70000005;stroke-linecap:round;stroke-linejoin:round;stroke-miterlimit:4;stroke-dasharray:none;stroke-opacity:1"
       id="path4250"
       d="M -402.30647,115.51086 C -402.30064,131.02794 -418.18155,143.60946 -437.7737,143.60946 C -457.36584,143.60946 -473.24677,131.02794 -473.24092,115.51086 C -473.24677,99.993793 -457.36584,87.412268 -437.7737,87.412268 C -418.18155,87.412268 -402.30064,99.993793 -402.30647,115.51086 z" />
    <g
       transform="matrix(1.3870291,0,0,1.3870291,-586.34185,-23.019691)"
       id="g4275">
      <path
         style="fill:#ffffff;fill-opacity:1;fill-rule:nonzero;stroke:#000000;stroke-width:2.70958376;stroke-linecap:round;stroke-linejoin:round;stroke-miterlimit:4;stroke-dasharray:none;stroke-opacity:1"
         id="path4277"
         d="M 142.81901,56.166743 C 142.82154,64.64703 135.94762,71.522993 127.46734,71.522993 C 118.98705,71.522993 112.11314,64.64703 112.11566,56.166743 C 112.11314,47.686462 118.98705,40.810499 127.46734,40.810499 C 135.94762,40.810499 142.82154,47.686462 142.81901,56.166743 z" />
      <path
         style="fill:#000000;fill-opacity:1;fill-rule:nonzero;stroke:none;stroke-width:47.66669083;stroke-linecap:round;stroke-linejoin:round;stroke-miterlimit:4;stroke-dasharray:none;stroke-opacity:1"
         id="path4279"
         d="M 129.17308,58.876327 C 129.17392,61.703087 126.88262,63.995077 124.05586,63.995077 C 121.2291,63.995077 118.93779,61.703087 118.93864,58.876327 C 118.93779,56.049567 121.2291,53.757584 124.05586,53.757584 C 126.88262,53.757584 129.17392,56.049567 129.17308,58.876327 z" />
    </g>
    <g
       transform="matrix(1.3870291,0,0,1.3870291,-594.9862,-23.019691)"
       id="g4281">
      <path
         style="fill:#ffffff;fill-opacity:1;fill-rule:nonzero;stroke:#000000;stroke-width:2.70958376;stroke-linecap:round;stroke-linejoin:round;stroke-miterlimit:4;stroke-dasharray:none;stroke-opacity:1"
         id="path4283"
         d="M 107.09843,56.166743 C 107.10095,64.64703 100.22703,71.522993 91.746753,71.522993 C 83.266466,71.522993 76.392549,64.64703 76.395076,56.166743 C 76.392549,47.686462 83.266466,40.810499 91.746753,40.810499 C 100.22703,40.810499 107.10095,47.686462 107.09843,56.166743 z" />
      <path
         style="fill:#000000;fill-opacity:1;fill-rule:nonzero;stroke:none;stroke-width:47.66669083;stroke-linecap:round;stroke-linejoin:round;stroke-miterlimit:4;stroke-dasharray:none;stroke-opacity:1"
         id="path4285"
         d="M 100.70189,58.876327 C 100.70273,61.703087 98.411429,63.995077 95.584669,63.995077 C 92.757909,63.995077 90.466603,61.703087 90.46745,58.876327 C 90.466603,56.049567 92.757909,53.757584 95.584669,53.757584 C 98.411429,53.757584 100.70273,56.049567 100.70189,58.876327 z" />
    </g>
    <path
       sodipodi:nodetypes="ccsscssc"
       d="M -359.00474,50.265142 L -360.98032,53.086564 C -360.71809,56.353285 -360.61812,59.6749 -360.61812,63.044525 C -360.61812,111.02809 -411.6107,150.85108 -446.85212,145.63031 C -476.19676,141.28311 -503.82489,129.92561 -519.59344,95.045539 C -511.56912,137.79444 -466.75464,164.2954 -441.78145,164.04771 C -386.41459,163.50431 -355.54748,126.72843 -355.54748,78.74491 C -355.54748,68.76937 -356.68055,59.189854 -359.00474,50.265142 z"
       id="path4287"
       style="fill:#000000;fill-opacity:0.31372549;fill-rule:nonzero;stroke:none;stroke-width:4;stroke-linecap:round;stroke-linejoin:round;stroke-miterlimit:4;stroke-opacity:1" />
    <path
       style="fill:#000000;fill-opacity:1;fill-rule:nonzero;stroke:none;stroke-width:47.66669083;stroke-linecap:round;stroke-linejoin:round;stroke-miterlimit:4;stroke-dasharray:none;stroke-opacity:1"
       id="path4328"
       d="M -415.17503,113.97119 C -415.17386,117.89199 -418.35196,121.07105 -422.27276,121.07105 C -426.19356,121.07105 -429.37167,117.89199 -429.3705,113.97119 C -429.37167,110.0504 -426.19356,106.87135 -422.27276,106.87135 C -418.35196,106.87135 -415.17386,110.0504 -415.17503,113.97119 z" />
    <path
       style="fill:#000000;fill-opacity:1;fill-rule:nonzero;stroke:none;stroke-width:47.66669083;stroke-linecap:round;stroke-linejoin:round;stroke-miterlimit:4;stroke-dasharray:none;stroke-opacity:1"
       id="path4334"
       d="M -447.30975,113.97119 C -447.30858,117.89199 -450.48668,121.07105 -454.40748,121.07105 C -458.32828,121.07105 -461.50639,117.89199 -461.50521,113.97119 C -461.50639,110.0504 -458.32828,106.87135 -454.40748,106.87135 C -450.48668,106.87135 -447.30858,110.0504 -447.30975,113.97119 z" />
  </g>
</svg>
