<?xml version="1.0" encoding="UTF-8" standalone="no"?>
<!-- Created with Inkscape (http://www.inkscape.org/) -->
<svg
   xmlns:dc="http://purl.org/dc/elements/1.1/"
   xmlns:cc="http://creativecommons.org/ns#"
   xmlns:rdf="http://www.w3.org/1999/02/22-rdf-syntax-ns#"
   xmlns:svg="http://www.w3.org/2000/svg"
   xmlns="http://www.w3.org/2000/svg"
   xmlns:sodipodi="http://sodipodi.sourceforge.net/DTD/sodipodi-0.dtd"
   xmlns:inkscape="http://www.inkscape.org/namespaces/inkscape"
   width="131.01476"
   height="143.94528"
   id="svg2"
   sodipodi:version="0.32"
   inkscape:version="0.46"
   sodipodi:docname="pingu.svg"
   inkscape:output_extension="org.inkscape.output.svg.inkscape"
   version="1.0">
  <defs
     id="defs4">
    <inkscape:perspective
       sodipodi:type="inkscape:persp3d"
       inkscape:vp_x="0 : 71.972641 : 1"
       inkscape:vp_y="0 : 1000 : 0"
       inkscape:vp_z="131.01476 : 71.972641 : 1"
       inkscape:persp3d-origin="65.507378 : 47.981761 : 1"
       id="perspective22" />
  </defs>
  <sodipodi:namedview
     id="base"
     pagecolor="#ffffff"
     bordercolor="#666666"
     borderopacity="1.0"
     gridtolerance="10000"
     guidetolerance="10"
     objecttolerance="10"
     inkscape:pageopacity="0.0"
     inkscape:pageshadow="2"
     inkscape:zoom="2"
     inkscape:cx="116.68596"
     inkscape:cy="82.045191"
     inkscape:document-units="px"
     inkscape:current-layer="g3249"
     showgrid="false"
     showguides="true"
     inkscape:guide-bbox="true"
     inkscape:window-width="1280"
     inkscape:window-height="975"
     inkscape:window-x="0"
     inkscape:window-y="28"
     inkscape:object-paths="false"
     inkscape:object-nodes="true" />
  <metadata
     id="metadata7">
    <rdf:RDF>
      <cc:Work
         rdf:about="">
        <dc:format>image/svg+xml</dc:format>
        <dc:type
           rdf:resource="http://purl.org/dc/dcmitype/StillImage" />
        <cc:license
           rdf:resource="http://creativecommons.org/licenses/publicdomain/" />
      </cc:Work>
      <cc:License
         rdf:about="http://creativecommons.org/licenses/publicdomain/">
        <cc:permits
           rdf:resource="http://creativecommons.org/ns#Reproduction" />
        <cc:permits
           rdf:resource="http://creativecommons.org/ns#Distribution" />
        <cc:permits
           rdf:resource="http://creativecommons.org/ns#DerivativeWorks" />
      </cc:License>
    </rdf:RDF>
  </metadata>
  <g
     inkscape:label="Layer 1"
     inkscape:groupmode="layer"
     id="layer1"
     transform="translate(-276.25825,-420.65543)">
    <g
       id="g3249">
      <path
         style="fill:#d45500;fill-opacity:1;fill-rule:nonzero;stroke:#000000;stroke-width:3.99999976;stroke-linecap:round;stroke-linejoin:round;stroke-miterlimit:4;stroke-opacity:1"
         d="M 380.91006,553.93034 C 380.91006,558.01277 374.61199,562.60071 356.16895,562.60071 C 347.87831,562.60071 346.16244,557.35124 341.1353,557.35864 C 336.35071,557.36569 335.50469,562.58563 326.61626,562.58563 C 308.35305,562.58563 301.36055,557.98543 301.36055,553.93034 C 301.36055,549.31385 319.17964,545.56715 341.1353,545.56715 C 363.09097,545.56715 380.91006,549.31385 380.91006,553.93034 z"
         id="path3176"
         sodipodi:nodetypes="csssssc" />
      <path
         id="path2387"
         d="M 341.3125,422.65625 L 341.3125,422.6875 C 310.7926,423.42115 313.62128,452.4535 302.65625,468.78125 C 291.2917,485.70392 275.23899,502.73131 278.75,522.9375 C 282.72436,545.81037 287.54321,521.67273 303.28125,536.78125 C 312.95947,546.07231 313.11699,553.83837 340.5625,553.78125 C 341.36107,553.77959 342.09167,553.79635 342.9375,553.78125 C 370.39717,553.84109 370.53887,546.07391 380.21875,536.78125 C 395.95679,521.67273 400.80689,545.81037 404.78125,522.9375 C 408.29226,502.73131 392.23956,485.70392 380.875,468.78125 C 369.90881,452.45177 372.71766,423.41525 342.1875,422.6875 L 342.1875,422.65625 C 342.03634,422.65712 341.89957,422.65403 341.75,422.65625 C 341.60203,422.65407 341.46202,422.65711 341.3125,422.65625 z"
         style="fill:#000000;fill-opacity:1;fill-rule:evenodd;stroke:#000000;stroke-width:4;stroke-linecap:butt;stroke-linejoin:miter;stroke-miterlimit:4;stroke-dasharray:none;stroke-opacity:1" />
      <path
         id="path3230"
         d="M 305.53125,468.75 C 305.17482,469.35949 304.7953,469.95192 304.40625,470.53125 C 295.53371,483.74313 283.79693,497.01011 280.75,511.8125 C 297.41973,506.33853 308.9375,494.67243 308.9375,481.15625 C 308.9375,476.7782 307.73239,472.59444 305.53125,468.75 z"
         style="opacity:1;fill:#333333;fill-opacity:1;fill-rule:nonzero;stroke:none;stroke-width:4;stroke-linecap:round;stroke-linejoin:round;stroke-miterlimit:4;stroke-dasharray:none;stroke-opacity:1" />
      <path
         transform="matrix(1,0,0,0.8504197,-2.5,62.025375)"
         d="M 364.75,439.36218 A 20.375,13 0 1 1 324,439.36218 A 20.375,13 0 1 1 364.75,439.36218 z"
         sodipodi:ry="13"
         sodipodi:rx="20.375"
         sodipodi:cy="439.36218"
         sodipodi:cx="344.375"
         id="path3228"
         style="opacity:1;fill:#333333;fill-opacity:1;fill-rule:nonzero;stroke:none;stroke-width:4;stroke-linecap:round;stroke-linejoin:round;stroke-miterlimit:4;stroke-dasharray:none;stroke-opacity:1"
         sodipodi:type="arc" />
      <path
         id="path2392"
         d="M 341.18848,478.16701 C 320.34363,478.16701 303.4337,497.18701 303.4337,520.63749 C 303.4337,525.88941 304.28431,530.93082 305.83547,535.57538 C 314.72556,544.20469 315.05396,551.38656 340.60268,551.33338 C 341.35116,551.33183 342.03594,551.34754 342.82872,551.33338 C 366.75421,551.38553 368.5619,545.09792 375.98498,537.21561 C 375.98818,537.20709 375.98177,537.19484 375.98498,537.18632 C 377.8967,532.10433 378.97255,526.50009 378.97255,520.63749 C 378.97255,497.18703 362.03334,478.16703 341.18848,478.16701 z"
         style="opacity:1;fill:#cccccc;fill-opacity:1;fill-rule:nonzero;stroke:none;stroke-width:2;stroke-linecap:round;stroke-linejoin:round;stroke-miterlimit:4;stroke-dasharray:none;stroke-opacity:1" />
      <path
         style="opacity:1;fill:#ffffff;fill-opacity:1;fill-rule:nonzero;stroke:none;stroke-width:4;stroke-linecap:round;stroke-linejoin:round;stroke-miterlimit:4;stroke-dasharray:none;stroke-opacity:1"
         d="M 54.25,62.09375 C 42.126673,66.328972 33.468749,77.525583 33.46875,90.65625 C 33.46875,107.42052 47.590213,121.03125 65,121.03125 C 82.40979,121.03125 96.531252,107.42052 96.53125,90.65625 C 96.53125,77.85672 88.300752,66.904882 76.65625,62.4375 C 75.05585,67.712475 69.822192,75.125 65.5,75.125 C 61.578022,75.124997 55.76664,67.646481 54.25,62.09375 z"
         id="path3239"
         transform="translate(276.25825,420.65543)" />
      <path
         id="path3167"
         d="M 332.55673,438.6875 C 326.15661,438.6875 320.95703,445.24489 320.95703,453.3445 C 320.95703,461.44411 326.15662,468.03124 332.55673,468.03125 C 336.31615,468.03125 339.64669,465.74707 341.76564,462.23386 C 343.88476,465.74419 347.21697,468.03124 350.97457,468.03125 C 357.37469,468.03125 362.57424,461.4441 362.57425,453.3445 C 362.57425,445.2449 357.3747,438.68748 350.97457,438.6875 C 347.21697,438.6875 343.88476,440.94483 341.76564,444.45516 C 339.64669,440.94193 336.31615,438.68748 332.55673,438.6875 z"
         style="opacity:1;fill:#ffffff;fill-opacity:1;fill-rule:nonzero;stroke:#000000;stroke-width:4;stroke-linecap:round;stroke-linejoin:round;stroke-miterlimit:4;stroke-dasharray:none;stroke-opacity:1" />
      <path
         sodipodi:type="arc"
         style="opacity:1;fill:#000000;fill-opacity:1;fill-rule:nonzero;stroke:none;stroke-width:4;stroke-linecap:round;stroke-linejoin:round;stroke-miterlimit:4;stroke-dasharray:none;stroke-opacity:1"
         id="path3175"
         sodipodi:cx="355.67969"
         sodipodi:cy="458.09384"
         sodipodi:rx="5.0361724"
         sodipodi:ry="5.0361724"
         d="M 360.71586,458.09384 A 5.0361724,5.0361724 0 1 1 350.64352,458.09384 A 5.0361724,5.0361724 0 1 1 360.71586,458.09384 z"
         transform="translate(-19.360521,-3.406651)" />
      <path
         sodipodi:nodetypes="czssc"
         id="path3177"
         d="M 353.41178,469.69501 C 353.41178,474.56483 346.93526,485.16326 341.76563,485.16326 C 337.22552,485.16326 330.11948,475.1535 330.11948,469.69501 C 330.11948,464.20032 335.33695,461.87095 341.76563,461.87095 C 348.1943,461.87095 353.41178,465.49555 353.41178,469.69501 z"
         style="fill:#d45500;fill-opacity:1;fill-rule:nonzero;stroke:#000000;stroke-width:4;stroke-linecap:round;stroke-linejoin:round;stroke-miterlimit:4;stroke-opacity:1" />
      <path
         transform="matrix(0.4910297,0,0,0.3155227,161.40471,307.93847)"
         d="M 360.71586,458.09384 A 5.0361724,5.0361724 0 1 1 350.64352,458.09384 A 5.0361724,5.0361724 0 1 1 360.71586,458.09384 z"
         sodipodi:ry="5.0361724"
         sodipodi:rx="5.0361724"
         sodipodi:cy="458.09384"
         sodipodi:cx="355.67969"
         id="path3196"
         style="opacity:1;fill:#666666;fill-opacity:1;fill-rule:nonzero;stroke:none;stroke-width:4;stroke-linecap:round;stroke-linejoin:round;stroke-miterlimit:4;stroke-dasharray:none;stroke-opacity:1"
         sodipodi:type="arc" />
      <path
         transform="translate(-8.7916087,-3.406651)"
         d="M 360.71586,458.09384 A 5.0361724,5.0361724 0 1 1 350.64352,458.09384 A 5.0361724,5.0361724 0 1 1 360.71586,458.09384 z"
         sodipodi:ry="5.0361724"
         sodipodi:rx="5.0361724"
         sodipodi:cy="458.09384"
         sodipodi:cx="355.67969"
         id="path3198"
         style="opacity:1;fill:#000000;fill-opacity:1;fill-rule:nonzero;stroke:none;stroke-width:4;stroke-linecap:round;stroke-linejoin:round;stroke-miterlimit:4;stroke-dasharray:none;stroke-opacity:1"
         sodipodi:type="arc" />
      <path
         sodipodi:type="arc"
         style="opacity:1;fill:#666666;fill-opacity:1;fill-rule:nonzero;stroke:none;stroke-width:4;stroke-linecap:round;stroke-linejoin:round;stroke-miterlimit:4;stroke-dasharray:none;stroke-opacity:1"
         id="path3200"
         sodipodi:cx="355.67969"
         sodipodi:cy="458.09384"
         sodipodi:rx="5.0361724"
         sodipodi:ry="5.0361724"
         d="M 360.71586,458.09384 A 5.0361724,5.0361724 0 1 1 350.64352,458.09384 A 5.0361724,5.0361724 0 1 1 360.71586,458.09384 z"
         transform="matrix(0.4910297,0,0,0.3155227,171.97362,307.93847)" />
      <path
         transform="matrix(0.5,0,0.6124553,2.2857142,-121.06201,-601.07954)"
         d="M 348.42686,469.70621 A 6.3639612,2.4748738 0 1 1 335.69894,469.70621 A 6.3639612,2.4748738 0 1 1 348.42686,469.70621 z"
         sodipodi:ry="2.4748738"
         sodipodi:rx="6.3639612"
         sodipodi:cy="469.70621"
         sodipodi:cx="342.0629"
         id="path3202"
         style="opacity:1;fill:#ff7f2a;fill-opacity:1;fill-rule:nonzero;stroke:none;stroke-width:4;stroke-linecap:round;stroke-linejoin:round;stroke-miterlimit:4;stroke-dasharray:none;stroke-opacity:1"
         sodipodi:type="arc" />
      <path
         style="opacity:1;fill:#333333;fill-opacity:1;fill-rule:nonzero;stroke:none;stroke-width:4;stroke-linecap:round;stroke-linejoin:round;stroke-miterlimit:4;stroke-dasharray:none;stroke-opacity:1"
         d="M 376.78724,468.75 C 377.14367,469.35949 377.52319,469.95192 377.91224,470.53125 C 386.78478,483.74313 398.52156,497.01011 401.56849,511.8125 C 384.89876,506.33853 373.38099,494.67243 373.38099,481.15625 C 373.38099,476.7782 374.5861,472.59444 376.78724,468.75 z"
         id="path3235" />
    </g>
  </g>
</svg>
