<?xml version="1.0" encoding="UTF-8" standalone="no"?>
<!-- Created with Inkscape (http://www.inkscape.org/) -->

<svg
   xmlns:dc="http://purl.org/dc/elements/1.1/"
   xmlns:cc="http://creativecommons.org/ns#"
   xmlns:rdf="http://www.w3.org/1999/02/22-rdf-syntax-ns#"
   xmlns:svg="http://www.w3.org/2000/svg"
   xmlns="http://www.w3.org/2000/svg"
   xmlns:xlink="http://www.w3.org/1999/xlink"
   xmlns:sodipodi="http://sodipodi.sourceforge.net/DTD/sodipodi-0.dtd"
   xmlns:inkscape="http://www.inkscape.org/namespaces/inkscape"
   version="1.0"
   width="744.09448"
   height="1052.3622"
   id="svg2"
   inkscape:version="0.48.2 r9819"
   sodipodi:docname="reindeer-watching.svg"
   inkscape:export-filename="/home/magi/itmill/book-7/manual/img/clipart/reindeer-128px.png"
   inkscape:export-xdpi="32.77"
   inkscape:export-ydpi="32.77">
  <metadata
     id="metadata24">
    <rdf:RDF>
      <cc:Work
         rdf:about="">
        <dc:format>image/svg+xml</dc:format>
        <dc:type
           rdf:resource="http://purl.org/dc/dcmitype/StillImage" />
        <dc:title />
      </cc:Work>
    </rdf:RDF>
  </metadata>
  <sodipodi:namedview
     pagecolor="#ffffff"
     bordercolor="#666666"
     borderopacity="1"
     objecttolerance="10"
     gridtolerance="10"
     guidetolerance="10"
     inkscape:pageopacity="0"
     inkscape:pageshadow="2"
     inkscape:window-width="1565"
     inkscape:window-height="928"
     id="namedview22"
     showgrid="false"
     inkscape:zoom="0.53387372"
     inkscape:cx="386.11476"
     inkscape:cy="488.01945"
     inkscape:window-x="0"
     inkscape:window-y="0"
     inkscape:window-maximized="0"
     inkscape:current-layer="layer1"
     fit-margin-top="0"
     fit-margin-left="0"
     fit-margin-right="0"
     fit-margin-bottom="0" />
  <defs
     id="defs4">
    <linearGradient
       id="linearGradient3803">
      <stop
         style="stop-color:#707070;stop-opacity:1;"
         offset="0"
         id="stop3805" />
      <stop
         style="stop-color:#dadada;stop-opacity:1;"
         offset="1"
         id="stop3807" />
    </linearGradient>
    <radialGradient
       inkscape:collect="always"
       xlink:href="#linearGradient3803"
       id="radialGradient3817"
       gradientUnits="userSpaceOnUse"
       gradientTransform="matrix(1,0,0,0.83380702,0,86.762988)"
       cx="351.25192"
       cy="522.06171"
       fx="351.25192"
       fy="522.06171"
       r="112.32813" />
  </defs>
  <g
     transform="translate(2.7978768,255.05534)"
     id="layer1">
    <g
       id="g3798"
       transform="matrix(0.59987524,0,0,0.59987524,158.09418,-315.95941)">
      <path
         inkscape:connector-curvature="0"
         style="fill:#ababab;fill-opacity:1;fill-rule:nonzero;stroke:#000000;stroke-width:3.28735638;stroke-linecap:round;stroke-linejoin:round;stroke-miterlimit:4;stroke-opacity:1;stroke-dasharray:none"
         id="path2383"
         transform="matrix(1.2167832,0,0,1.2167832,-76.150099,-121.55162)"
         d="m 441.29462,560.70587 c 0.0148,49.72803 -40.29355,90.04842 -90.02158,90.04842 -49.72803,0 -90.0364,-40.32039 -90.02158,-90.04842 -0.0148,-49.72803 40.29355,-90.04842 90.02158,-90.04842 49.72803,0 90.0364,40.32039 90.02158,90.04842 z" />
      <path
         inkscape:connector-curvature="0"
         style="fill:#000000;fill-opacity:0.31372549;fill-rule:nonzero;stroke:none"
         id="path3221"
         d="m 454.1875,523.125 c 0.0768,1.68161 0.125,3.39329 0.125,5.09375 0,60.46428 -49.06696,109.53125 -109.53125,109.53125 -47.26217,0 -87.5912,-29.99927 -102.9375,-71.96875 2.65351,58.11219 50.67363,104.46875 109.4375,104.46875 60.46429,0 109.53125,-49.06697 109.53125,-109.53125 0,-13.20218 -2.33815,-25.87003 -6.625,-37.59375 z" />
      <path
         inkscape:connector-curvature="0"
         style="fill:#333333;fill-opacity:1;fill-rule:nonzero;stroke:#000000;stroke-width:3.99999976;stroke-linecap:round;stroke-linejoin:round;stroke-miterlimit:4;stroke-opacity:1"
         id="path3172"
         d="m 359.45331,671.27549 c 0,9.09078 14.66533,9.38135 32.73511,9.38135 18.06978,0 32.73512,0.69349 32.73512,-9.38135 0,-17.71594 -14.66534,-32.0941 -32.73512,-32.0941 -18.06978,0 -32.73511,14.37816 -32.73511,32.0941 z" />
      <path
         inkscape:connector-curvature="0"
         style="fill:#000000;fill-opacity:0.31372549;fill-rule:nonzero;stroke:none"
         id="path3236"
         d="m 435.90825,536.8321 c 0,50.59986 -55.12119,91.6664 -81.8378,91.6664 -25.71825,0 -81.8378,-41.06654 -81.8378,-91.6664 0,-50.59985 24.62503,-91.66639 81.8378,-91.66639 57.22259,0 81.8378,41.06654 81.8378,91.66639 z" />
      <path
         inkscape:connector-curvature="0"
         style="fill:#000000;fill-opacity:0.31372549;fill-rule:evenodd;stroke:#000000;stroke-width:4;stroke-linecap:butt;stroke-linejoin:round;stroke-miterlimit:4;stroke-opacity:1;stroke-dasharray:none"
         id="path3174"
         d="m 404.77885,680.0559 c 0,-16.36756 -9.44283,-26.43991 -9.44283,-26.43991 0,0 3.77713,13.84948 3.14761,26.43991 l 6.29522,0 z" />
      <path
         inkscape:connector-curvature="0"
         style="fill:url(#radialGradient3817);fill-opacity:1;fill-rule:nonzero;stroke:#000000;stroke-width:4;stroke-linecap:round;stroke-linejoin:round;stroke-miterlimit:4;stroke-opacity:1"
         id="path3155"
         d="m 348.61128,430.41056 c -30.12925,0.68392 -50.93167,13.05281 -63.625,32.20283 -24.06444,-2.89858 -44.0625,26.46232 -44.0625,26.46232 0,10e-6 18.89113,10.58081 32.0625,1.71515 -2.39923,9.75799 -3.5625,20.28045 -3.5625,31.25775 0,50.59986 56.1255,91.67305 81.84375,91.67305 26.71661,0 81.84375,-41.07319 81.84375,-91.67305 0,-10.9773 -1.16389,-21.49976 -3.5625,-31.25775 13.17137,8.86566 32.03125,-1.71515 32.03125,-1.71515 0,0 -19.97122,-29.35168 -44.03125,-26.46232 -13.06166,-19.70812 -34.70768,-32.20283 -66.28125,-32.20283 -0.89395,0 -1.77818,-0.0199 -2.65625,0 z" />
      <path
         sodipodi:nodetypes="ssssssssss"
         inkscape:connector-curvature="0"
         style="fill:#4d4d4d;fill-opacity:1;fill-rule:evenodd;stroke:#000000;stroke-width:5;stroke-linecap:butt;stroke-linejoin:round;stroke-miterlimit:4;stroke-opacity:1;stroke-dasharray:none"
         id="path2399"
         d="m 382.23628,434.167 c 22.6428,-2.36919 26.00801,10.25339 52.74483,-4.71535 31.04147,-17.37871 -12.51535,-41.79473 1.47051,-35.43362 9.94031,4.52109 30.92517,28.49633 36.04277,8.06638 6.91359,-27.59969 -46.40732,-44.43924 -37.87019,-41.77138 8,2.5 42.26755,12.33419 40.86725,1.67258 -3.23797,-24.6533 -89.31802,-36.23131 -1.93362,-20.93069 23.21645,4.06509 19.1062,68.24484 -12.90708,87.52949 -30.88465,18.60479 -47.36114,28.06945 -63.91447,27.58259 -17,-0.5 -32.65989,-20.09987 -14.5,-22 z" />
      <path
         transform="matrix(0.2517482,0,0,0.2517482,236.54837,359.07889)"
         inkscape:connector-curvature="0"
         style="fill:#ffffff;fill-opacity:1;fill-rule:nonzero;stroke:#000000;stroke-width:15.88889027;stroke-linecap:round;stroke-linejoin:round;stroke-miterlimit:4;stroke-opacity:1;stroke-dasharray:none"
         id="path3157"
         d="m 441.29462,560.70587 c 0.0148,49.72803 -40.29355,90.04842 -90.02158,90.04842 -49.72803,0 -90.0364,-40.32039 -90.02158,-90.04842 -0.0148,-49.72803 40.29355,-90.04842 90.02158,-90.04842 49.72803,0 90.0364,40.32039 90.02158,90.04842 z" />
      <path
         transform="matrix(0.2517482,0,0,0.2517482,289.28057,359.07889)"
         inkscape:connector-curvature="0"
         style="fill:#ffffff;fill-opacity:1;fill-rule:nonzero;stroke:#000000;stroke-width:15.88889027;stroke-linecap:round;stroke-linejoin:round;stroke-miterlimit:4;stroke-opacity:1;stroke-dasharray:none"
         id="path3159"
         d="m 441.29462,560.70587 c 0.0148,49.72803 -40.29355,90.04842 -90.02158,90.04842 -49.72803,0 -90.0364,-40.32039 -90.02158,-90.04842 -0.0148,-49.72803 40.29355,-90.04842 90.02158,-90.04842 49.72803,0 90.0364,40.32039 90.02158,90.04842 z" />
      <path
         transform="matrix(0.08391603,0,0,0.08391603,343.19932,457.18337)"
         inkscape:connector-curvature="0"
         style="fill:#000000;fill-opacity:1;fill-rule:nonzero;stroke:none"
         id="path3161"
         d="m 441.29462,560.70587 c 0.0148,49.72803 -40.29355,90.04842 -90.02158,90.04842 -49.72803,0 -90.0364,-40.32039 -90.02158,-90.04842 -0.0148,-49.72803 40.29355,-90.04842 90.02158,-90.04842 49.72803,0 90.0364,40.32039 90.02158,90.04842 z" />
      <path
         transform="matrix(0.08391603,0,0,0.08391603,301.16898,457.18337)"
         inkscape:connector-curvature="0"
         style="fill:#000000;fill-opacity:1;fill-rule:nonzero;stroke:none"
         id="path3163"
         d="m 441.29462,560.70587 c 0.0148,49.72803 -40.29355,90.04842 -90.02158,90.04842 -49.72803,0 -90.0364,-40.32039 -90.02158,-90.04842 -0.0148,-49.72803 40.29355,-90.04842 90.02158,-90.04842 49.72803,0 90.0364,40.32039 90.02158,90.04842 z" />
      <path
         inkscape:connector-curvature="0"
         style="fill:#000000;fill-opacity:0.31372549;fill-rule:nonzero;stroke:none"
         id="path3231"
         d="m 429.83003,492.01597 -1.875,2.97526 c 0.24888,3.44484 0.34375,6.94757 0.34375,10.50093 0,50.59987 -55.12714,91.67305 -81.84375,91.67305 -20.70581,2e-5 -61.09673,-26.60866 -76.0625,-63.39057 7.61581,45.0798 57.1719,79.94704 80.875,79.94703 26.71661,0 81.84375,-41.07323 81.84375,-91.67306 0,-10.51946 -1.07538,-20.6213 -3.28125,-30.03264 z" />
      <path
         inkscape:connector-curvature="0"
         style="fill:#333333;fill-opacity:1;fill-rule:nonzero;stroke:#000000;stroke-width:3.99999976;stroke-linecap:round;stroke-linejoin:round;stroke-miterlimit:4;stroke-opacity:1"
         id="path3329"
         d="m 344.4555,671.27549 c 0,9.09078 -14.66533,9.38135 -32.73511,9.38135 -18.06978,0 -32.73512,0.69349 -32.73512,-9.38135 0,-17.71594 14.66534,-32.0941 32.73512,-32.0941 18.06978,0 32.73511,14.37816 32.73511,32.0941 z" />
      <path
         inkscape:connector-curvature="0"
         style="fill:#000000;fill-opacity:0.31372549;fill-rule:evenodd;stroke:#000000;stroke-width:4;stroke-linecap:butt;stroke-linejoin:round;stroke-miterlimit:4;stroke-opacity:1;stroke-dasharray:none"
         id="path3331"
         d="m 299.12996,680.0559 c 0,-16.36756 9.44283,-26.43991 9.44283,-26.43991 0,0 -3.77713,13.84948 -3.14761,26.43991 l -6.29522,0 z" />
      <path
         inkscape:connector-curvature="0"
         style="fill:#000000;fill-opacity:1;fill-rule:nonzero;stroke:none"
         id="path2398"
         d="m 367.86847,576.36692 c -2.29272,3.97309 -6.50025,5.8386 -9.39677,4.16629 -2.89654,-1.67231 -3.38472,-6.2489 -1.09029,-10.22099 2.29273,-3.9731 6.50026,-5.83861 9.39679,-4.1663 2.89653,1.67231 3.38471,6.2489 1.09027,10.221 z" />
      <path
         inkscape:connector-curvature="0"
         style="fill:#000000;fill-opacity:1;fill-rule:nonzero;stroke:none"
         id="path2412"
         d="m 335.13142,576.36692 c 2.29272,3.97309 6.50025,5.8386 9.39677,4.16629 2.89654,-1.67231 3.38472,-6.2489 1.09029,-10.22099 -2.29273,-3.9731 -6.50026,-5.83861 -9.39679,-4.1663 -2.89653,1.67231 -3.38471,6.2489 -1.09027,10.221 z" />
      <path
         sodipodi:nodetypes="ssssssssss"
         inkscape:connector-curvature="0"
         style="fill:#4d4d4d;fill-opacity:1;fill-rule:evenodd;stroke:#000000;stroke-width:5;stroke-linecap:butt;stroke-linejoin:round;stroke-miterlimit:4;stroke-opacity:1;stroke-dasharray:none"
         id="path2399-9"
         d="m 322.83513,433.58486 c -22.6428,-2.36919 -26.00801,10.25339 -52.74483,-4.71535 -31.04147,-17.37871 12.51535,-41.79473 -1.47051,-35.43362 -9.94031,4.52109 -30.92517,28.49633 -36.04277,8.06638 -6.91359,-27.59969 46.40732,-44.43924 37.87019,-41.77138 -8,2.5 -42.26755,12.33419 -40.86725,1.67258 3.23797,-24.6533 89.31802,-36.23131 1.93362,-20.93069 -23.21645,4.06509 -19.1062,68.24484 12.90708,87.52949 30.88465,18.60479 47.36114,28.06945 63.91447,27.58259 17,-0.5 32.65989,-20.09987 14.5,-22 z" />
    </g>
    <text
       xml:space="preserve"
       style="font-size:19.19600868px;font-style:normal;font-variant:normal;font-weight:normal;font-stretch:normal;text-align:center;line-height:125%;letter-spacing:0px;word-spacing:0px;writing-mode:lr-tb;text-anchor:middle;fill:#000000;fill-opacity:1;stroke:none;font-family:Sans;-inkscape-font-specification:Sans"
       x="369.59973"
       y="-126.6754"
       id="text3003"
       sodipodi:linespacing="125%"><tspan
         sodipodi:role="line"
         id="tspan3005"
         x="369.59973"
         y="-126.6754">You are currently watching a reindeer</tspan></text>
    <text
       xml:space="preserve"
       style="font-size:19.19600868px;font-style:normal;font-variant:normal;font-weight:normal;font-stretch:normal;text-align:center;line-height:125%;letter-spacing:0px;word-spacing:0px;writing-mode:lr-tb;text-anchor:middle;fill:#000000;fill-opacity:1;stroke:none;font-family:Sans;-inkscape-font-specification:Sans"
       x="370.37769"
       y="123.2097"
       id="text3003-5"
       sodipodi:linespacing="125%"><tspan
         sodipodi:role="line"
         id="tspan3005-8"
         x="370.37769"
         y="123.2097">And the reindeer is watching you</tspan></text>
    <rect
       style="color:#000000;fill:none;stroke:#49c2f1;stroke-width:7.19850302000000042;stroke-miterlimit:4;stroke-opacity:1;stroke-dasharray:none;marker:none;visibility:visible;display:inline;overflow:visible;enable-background:accumulate"
       id="rect3028"
       width="421.36041"
       height="329.78467"
       x="160.01506"
       y="-171.05867"
       ry="16.317715" />
  </g>
</svg>
