<?xml version="1.0" encoding="UTF-8" standalone="no"?>
<!-- Created with Inkscape (http://www.inkscape.org/) -->
<svg
   xmlns:dc="http://purl.org/dc/elements/1.1/"
   xmlns:cc="http://creativecommons.org/ns#"
   xmlns:rdf="http://www.w3.org/1999/02/22-rdf-syntax-ns#"
   xmlns:svg="http://www.w3.org/2000/svg"
   xmlns="http://www.w3.org/2000/svg"
   xmlns:sodipodi="http://sodipodi.sourceforge.net/DTD/sodipodi-0.dtd"
   xmlns:inkscape="http://www.inkscape.org/namespaces/inkscape"
   width="210mm"
   height="297mm"
   id="svg1901"
   sodipodi:version="0.32"
   inkscape:version="0.46"
   sodipodi:docname="vaadin-logo.svg"
   sodipodi:docbase="/home/tsoots/ohj/translations/po"
   inkscape:output_extension="org.inkscape.output.svg.inkscape">
  <defs
     id="defs1903">
    <inkscape:perspective
       sodipodi:type="inkscape:persp3d"
       inkscape:vp_x="0 : 526.18109 : 1"
       inkscape:vp_y="0 : 1000 : 0"
       inkscape:vp_z="744.09448 : 526.18109 : 1"
       inkscape:persp3d-origin="372.04724 : 350.78739 : 1"
       id="perspective2473" />
  </defs>
  <sodipodi:namedview
     id="base"
     pagecolor="#ffffff"
     bordercolor="#666666"
     borderopacity="1.0"
     inkscape:pageopacity="0.0"
     inkscape:pageshadow="2"
     inkscape:zoom="0.35"
     inkscape:cx="350"
     inkscape:cy="520"
     inkscape:document-units="px"
     inkscape:current-layer="layer1"
     gridtolerance="10000"
     inkscape:window-width="877"
     inkscape:window-height="739"
     inkscape:window-x="1280"
     inkscape:window-y="0"
     showgrid="false" />
  <metadata
     id="metadata1906">
    <rdf:RDF>
      <cc:Work
         rdf:about="">
        <dc:format>image/svg+xml</dc:format>
        <dc:type
           rdf:resource="http://purl.org/dc/dcmitype/StillImage" />
      </cc:Work>
    </rdf:RDF>
  </metadata>
  <g
     inkscape:label="Taso 1"
     inkscape:groupmode="layer"
     id="layer1"
     style="opacity:1">
    <g
       id="g29"
       transform="matrix(0,-1.25,-1.25,0,389.73732,123.89701)">
      <path
         d="M 0,0 C -4.669,0 -7.025,3.644 -7.025,7.025 L -7.025,7.802 C -7.025,11.184 -4.669,14.827 0,14.827 L 1.05,14.827 C 5.719,14.827 8.075,11.184 8.075,7.802 L 8.075,7.025 C 8.075,3.644 5.719,0 1.05,0 L 0,0 z M -46.866,144.25 C -47.375,140.288 -50.711,138.287 -53.825,138.287 C -57.206,138.287 -60.85,140.643 -60.85,145.312 L -60.85,151.276 C -60.85,153.742 -59.477,155.964 -57.486,157.221 C -59.819,161.152 -61.154,165.759 -61.154,170.731 C -61.154,184.745 -49.453,196.611 -35.272,196.611 C -20.729,196.611 -8.496,185.278 -8.496,170.432 C -8.496,156.276 -19.814,144.469 -33.986,144.253 L -46.866,144.25 z M -34.566,158.675 C -28.187,158.675 -22.982,163.983 -22.982,170.431 C -22.982,177.028 -28.42,182.187 -35.083,182.187 C -41.402,182.187 -46.667,176.853 -46.667,170.604 C -46.667,163.887 -41.281,158.675 -34.566,158.675 z M -22.828,53.324 C -22.828,59.703 -28.136,64.907 -34.585,64.907 C -41.181,64.907 -46.34,59.47 -46.34,52.807 C -46.34,46.487 -41.006,41.222 -34.757,41.222 C -28.04,41.222 -22.828,46.609 -22.828,53.324 z M -46.751,26.736 C -47.258,22.771 -50.595,20.771 -53.71,20.771 C -57.092,20.771 -60.735,23.128 -60.735,27.797 L -60.735,33.761 C -60.735,36.267 -59.315,38.526 -57.266,39.772 C -59.479,43.563 -60.764,47.955 -60.764,52.618 C -60.764,67.161 -49.431,79.394 -34.585,79.394 C -20.299,79.394 -8.404,67.87 -8.404,53.514 C -8.404,48.918 -9.525,44.58 -11.526,40.786 L 2.129,40.786 C 6.798,40.786 8.457,37.143 8.457,33.761 C 8.457,30.379 6.798,26.736 2.129,26.736 L -46.751,26.736 z M -57.109,233.262 L -22.94,247.637 L -22.94,248.537 C -22.94,253.21 -19.293,255.569 -15.907,255.569 C -12.522,255.569 -8.874,253.21 -8.874,248.537 L -8.874,242.965 C -8.874,239.985 -10.807,237.445 -13.206,236.472 L -42.063,225.46 L -13.158,214.426 C -10.925,213.428 -8.874,210.991 -8.874,207.953 L -8.874,202.383 C -8.874,197.709 -12.522,195.35 -15.907,195.35 C -19.293,195.35 -22.94,197.709 -22.94,202.383 L -22.94,203.282 L -57.109,217.657 C -59.414,218.65 -61.406,220.43 -61.406,225.443 C -61.406,230.481 -59.421,232.266 -57.109,233.262 z M -46.866,86.127 C -47.375,82.165 -50.711,80.164 -53.825,80.164 C -57.206,80.164 -60.85,82.52 -60.85,87.189 L -60.85,93.153 C -60.85,95.618 -59.477,97.84 -57.486,99.098 C -59.819,103.028 -61.154,107.636 -61.154,112.607 C -61.154,126.621 -49.453,138.488 -35.272,138.488 C -20.729,138.488 -8.496,127.155 -8.496,112.309 C -8.496,98.153 -19.814,86.346 -33.986,86.13 L -46.866,86.127 z M -34.566,100.551 C -28.187,100.551 -22.982,105.86 -22.982,112.308 C -22.982,118.905 -28.42,124.064 -35.083,124.064 C -41.402,124.064 -46.667,118.73 -46.667,112.48 C -46.667,105.763 -41.281,100.551 -34.566,100.551 z M -32.084,-28.339 L -54.965,-28.305 C -59.634,-28.305 -60.85,-24.908 -60.85,-20.463 C -60.85,-17.082 -59.634,-13.438 -54.965,-13.438 C -54.512,-13.406 -24.107,-13.39 -24.107,-13.39 C -23.6,-9.424 -20.261,-7.426 -17.146,-7.426 C -13.764,-7.426 -10.121,-9.782 -10.121,-14.451 L -10.121,-20.415 C -10.121,-22.85 -11.466,-25.061 -13.432,-26.328 C -10.124,-30.387 -8.373,-36.075 -8.373,-41.442 C -8.373,-56.445 -19.401,-65.67 -33.096,-65.714 L -46.843,-65.725 C -47.35,-69.69 -50.688,-71.689 -53.803,-71.689 C -57.185,-71.689 -60.828,-69.333 -60.828,-64.664 L -60.828,-57.923 C -60.828,-54.142 -57.584,-50.898 -53.803,-50.898 L -51.92,-50.898 L -32.286,-50.905 C -26.068,-50.905 -21.28,-46.838 -21.28,-39.502 C -21.28,-33.645 -26.157,-28.339 -32.084,-28.339 z M -60.85,1.397 L -60.85,7.36 C -60.85,11.142 -57.606,14.386 -53.825,14.386 L -17.075,14.386 C -12.406,14.386 -10.05,10.742 -10.05,7.36 L -10.05,6.584 C -10.05,3.202 -12.406,-0.441 -17.075,-0.441 L -46.864,-0.441 C -47.371,-4.407 -50.709,-6.406 -53.825,-6.406 C -57.206,-6.406 -60.85,-4.049 -60.85,0.62 L -60.85,1.397"
         style="fill:#231f20;fill-opacity:1;fill-rule:evenodd;stroke:none"
         id="path31" />
    </g>
    <g
       id="g33"
       transform="matrix(0,-1.25,-1.25,0,627.78482,172.37201)">
      <path
         d="M 0,0 L -12.834,38.015 L -13.637,38.015 C -17.809,38.015 -19.916,41.271 -19.916,44.294 C -19.916,47.316 -17.809,50.573 -13.637,50.573 L -8.663,50.573 C -6.002,50.573 -3.734,48.847 -2.866,46.706 L 6.965,13.432 L 16.816,46.748 C 17.707,48.742 19.883,50.573 22.595,50.573 L 27.569,50.573 C 31.742,50.573 33.848,47.316 33.848,44.294 C 33.848,41.271 31.742,38.015 27.569,38.015 L 26.765,38.015 L 13.932,0 C 13.045,-2.058 11.456,-3.837 6.981,-3.837 C 2.483,-3.837 0.889,-2.064 0,0 z M -29.538,85.317 L -5.43,85.317 C 5.54,85.317 6.384,76.88 6.744,72.661 C 7.348,76.88 8.192,85.317 19.16,85.317 L 43.27,85.317 C 48.331,85.317 50.502,87.607 50.502,90.982 L 50.502,93.997 C 50.502,97.131 52.188,99.421 55.926,99.421 C 59.421,99.421 61.35,97.131 61.35,93.997 L 61.35,85.076 C 61.35,74.59 56.408,69.405 45.319,69.405 L 20.727,69.405 C 13.375,69.405 12.651,66.273 12.651,63.258 C 12.651,59.28 9.759,57.472 6.866,57.472 C 3.973,57.472 1.079,59.28 1.079,63.258 C 1.079,66.273 0.357,69.405 -6.997,69.405 L -31.587,69.405 C -42.678,69.405 -47.62,74.59 -47.62,85.076 L -47.62,93.997 C -47.62,97.131 -45.691,99.421 -42.196,99.421 C -38.458,99.421 -36.77,97.131 -36.77,93.997 L -36.77,90.982 C -36.77,87.607 -34.601,85.317 -29.538,85.317"
         style="fill:#1fc4f4;fill-opacity:1;fill-rule:nonzero;stroke:none"
         id="path35" />
    </g>
  </g>
</svg>
