<?xml version="1.0" encoding="UTF-8" standalone="no"?>
<!-- Created with Inkscape (http://www.inkscape.org/) -->

<svg
   xmlns:dc="http://purl.org/dc/elements/1.1/"
   xmlns:cc="http://creativecommons.org/ns#"
   xmlns:rdf="http://www.w3.org/1999/02/22-rdf-syntax-ns#"
   xmlns:svg="http://www.w3.org/2000/svg"
   xmlns="http://www.w3.org/2000/svg"
   xmlns:xlink="http://www.w3.org/1999/xlink"
   xmlns:sodipodi="http://sodipodi.sourceforge.net/DTD/sodipodi-0.dtd"
   xmlns:inkscape="http://www.inkscape.org/namespaces/inkscape"
   width="744.09448819"
   height="1052.3622047"
   id="svg2"
   version="1.1"
   inkscape:version="0.48.2 r9819"
   sodipodi:docname="recorder-export-testcase.svg">
  <defs
     id="defs4">
    <linearGradient
       y2="471.38400"
       y1="45.132561"
       xlink:href="#linearGradient7601"
       x2="1370.5586"
       x1="-526.86133"
       spreadMethod="reflect"
       inkscape:collect="always"
       id="linearGradient10877"
       gradientUnits="userSpaceOnUse"
       gradientTransform="matrix(8.892150e-2,0.000000,0.000000,0.155616,635.7169,9.380527)" />
    <linearGradient
       y2="471.38400"
       y1="45.132561"
       xlink:href="#linearGradient7601"
       x2="1370.5586"
       x1="-526.86133"
       spreadMethod="reflect"
       inkscape:collect="always"
       id="linearGradient10869"
       gradientUnits="userSpaceOnUse"
       gradientTransform="matrix(0.323979,0.000000,0.000000,0.566975,399.6324,14.15086)" />
    <linearGradient
       y2="471.38400"
       y1="45.132561"
       xlink:href="#linearGradient7601"
       x2="1370.5586"
       x1="-526.86133"
       spreadMethod="reflect"
       inkscape:collect="always"
       id="linearGradient7607"
       gradientUnits="userSpaceOnUse"
       gradientTransform="matrix(0.755921,0,0,1.32289,-36,0)" />
    <linearGradient
       inkscape:collect="always"
       id="linearGradient7601">
      <stop
         style="stop-color:#000000;stop-opacity:1;"
         offset="0"
         id="stop7603" />
      <stop
         style="stop-color:#000000;stop-opacity:0;"
         offset="1"
         id="stop7605" />
    </linearGradient>
  </defs>
  <sodipodi:namedview
     id="base"
     pagecolor="#ffffff"
     bordercolor="#666666"
     borderopacity="1.0"
     inkscape:pageopacity="0.0"
     inkscape:pageshadow="2"
     inkscape:zoom="1.979899"
     inkscape:cx="265.21761"
     inkscape:cy="668.90178"
     inkscape:document-units="px"
     inkscape:current-layer="layer1"
     showgrid="false"
     inkscape:window-width="1680"
     inkscape:window-height="1027"
     inkscape:window-x="-4"
     inkscape:window-y="-4"
     inkscape:window-maximized="1" />
  <metadata
     id="metadata7">
    <rdf:RDF>
      <cc:Work
         rdf:about="">
        <dc:format>image/svg+xml</dc:format>
        <dc:type
           rdf:resource="http://purl.org/dc/dcmitype/StillImage" />
        <dc:title />
      </cc:Work>
    </rdf:RDF>
  </metadata>
  <g
     inkscape:label="Layer 1"
     inkscape:groupmode="layer"
     id="layer1">
    <image
       y="70.062508"
       x="104.3605"
       id="image3251"
       xlink:href="file:///home/magi/itmill/book/manual/img/testbench/screenshots/tt-recorder-export-testcase.png"
       height="512"
       width="460" />
    <path
       style="color:#000000;fill:#ffffff;fill-opacity:0.69154226;stroke:none;stroke-width:4;marker:none;visibility:visible;display:inline;overflow:visible;enable-background:accumulate"
       d="m 105.93656,71.373341 c -2.09859,0 -2.02031,509.378319 -2.02031,509.378319 0,2.09859 459.3811,1.01015 459.3811,1.01015 2.09859,0 0.50507,-507.863087 0.50507,-507.863087 -0.0651,-2.097582 -457.86586,-2.525382 -457.86586,-2.525382 z m 90.1493,32.325479 -0.2232,24.87655 106.93522,0.0639 -0.28777,104.94558 206.28842,1.91002 -0.28777,29.18412 -205.96247,-0.56022 0.10865,276.22158 -190.65593,-0.50508 c -2.09859,0 -0.50507,-435.1263 -0.50507,-435.1263 0,-2.09859 84.58992,-1.01016 84.58992,-1.01016 z"
       id="rect4069"
       inkscape:connector-curvature="0"
       sodipodi:nodetypes="cccccccccccccccc" />
    <g
       style="display:inline"
       inkscape:label="Layer 1"
       id="layer1-1"
       transform="matrix(0.06475623,0,0,0.06475623,376.80701,255.44786)">
      <g
         id="g1317">
        <path
           style="fill:url(#linearGradient7607);fill-opacity:1;fill-rule:nonzero;stroke:none;display:inline"
           id="path6080"
           d="m 70.29035,24.82601 0,602.34375 35.4375,0 0,-35.4375 35.4375,0 0,-35.40625 35.40625,0 0,-35.4375 35.4375,0 35.4375,0 0,70.84375 35.4375,0 0,70.875 35.4375,0 0,70.875 35.4375,0 0,35.4375 70.84375,0 0,-35.4375 35.4375,0 0,-70.875 -35.4375,0 0,-70.875 -35.40625,0 0,-70.84375 -35.4375,0 0,-70.875 141.71875,0 0,-35.4375 -35.4375,0 0,-35.4375 -35.4375,0 0,-35.4375 -35.40625,0 0,-35.40625 -35.4375,0 0,-35.4375 -35.4375,0 0,-35.4375 -35.4375,0 0,-35.4375 -35.4375,0 0,-35.4375 -35.4375,0 0,-35.4375 -35.4375,0 0,-35.437499 -35.40625,0 0,-35.406251 -35.4375,0 0,-35.4375 -35.4375,0 z"
           inkscape:connector-curvature="0" />
        <path
           style="fill:#000000;fill-opacity:1;fill-rule:evenodd;stroke:none"
           id="rect1430"
           d="m 35.4375,24.8125 0,602.34375 35.4375,0 0,-35.4375 35.4375,0 0,-35.40625 -35.4375,0 0,-460.65625 35.4375,0 0,-35.40625 -35.4375,0 0,-35.4375 -35.4375,0 z m 70.875,70.84375 0,35.4375 35.40625,0 0,-35.4375 -35.40625,0 z m 35.40625,35.4375 0,35.4375 35.4375,0 0,-35.4375 -35.4375,0 z m 35.4375,35.4375 0,35.4375 35.4375,0 0,-35.4375 -35.4375,0 z m 35.4375,35.4375 0,35.4375 35.4375,0 0,-35.4375 -35.4375,0 z m 35.4375,35.4375 0,35.4375 35.4375,0 0,-35.4375 -35.4375,0 z m 35.4375,35.4375 0,35.4375 35.4375,0 0,-35.4375 -35.4375,0 z m 35.4375,35.4375 0,35.40625 35.4375,0 0,-35.40625 -35.4375,0 z m 35.4375,35.40625 0,35.4375 35.40625,0 0,-35.4375 -35.40625,0 z m 35.40625,35.4375 0,35.4375 -106.28125,0 0,35.4375 0,70.875 35.4375,0 0,-70.875 141.71875,0 0,-35.4375 -35.4375,0 0,-35.4375 -35.4375,0 z m -70.84375,141.75 0,70.84375 35.4375,0 0,-70.84375 -35.4375,0 z m 35.4375,70.84375 0,70.875 35.40625,0 0,-70.875 -35.40625,0 z m 35.40625,70.875 0,70.875 35.4375,0 0,-70.875 -35.4375,0 z m 0,70.875 -70.84375,0 0,35.4375 70.84375,0 0,-35.4375 z m -70.84375,0 0,-70.875 -35.4375,0 0,70.875 35.4375,0 z m -35.4375,-70.875 0,-70.875 -35.4375,0 0,70.875 35.4375,0 z m -35.4375,-70.875 0,-70.84375 -35.4375,0 0,70.84375 35.4375,0 z m -35.4375,-70.84375 0,-70.875 -35.4375,0 0,35.4375 -35.4375,0 0,35.4375 35.4375,0 35.4375,0 z m -70.875,0 -35.40625,0 0,35.4375 35.40625,0 0,-35.4375 z"
           inkscape:connector-curvature="0" />
        <path
           style="fill:#ffffff;fill-opacity:1;stroke:none"
           id="rect3779"
           d="m 70.875,95.65625 0,460.65625 35.4375,0 0,-35.4375 35.40625,0 0,-35.4375 35.4375,0 0,-35.4375 35.4375,0 0,70.875 35.4375,0 0,70.84375 35.4375,0 0,70.875 35.4375,0 0,70.875 35.4375,0 35.40625,0 0,-70.875 -35.40625,0 0,-70.875 -35.4375,0 0,-70.84375 -35.4375,0 0,-106.3125 35.4375,0 35.4375,0 35.40625,0 0,-35.4375 -35.40625,0 0,-35.4375 -35.4375,0 0,-35.40625 -35.4375,0 0,-35.4375 -35.4375,0 0,-35.4375 -35.4375,0 0,-35.4375 -35.4375,0 0,-35.4375 -35.4375,0 0,-35.4375 -35.40625,0 0,-35.4375 -35.4375,0 z"
           inkscape:connector-curvature="0" />
      </g>
    </g>
  </g>
</svg>
