<?xml version="1.0" encoding="UTF-8" standalone="no"?>
<!-- Created with Inkscape (http://www.inkscape.org/) -->
<svg
   xmlns:dc="http://purl.org/dc/elements/1.1/"
   xmlns:cc="http://creativecommons.org/ns#"
   xmlns:rdf="http://www.w3.org/1999/02/22-rdf-syntax-ns#"
   xmlns:svg="http://www.w3.org/2000/svg"
   xmlns="http://www.w3.org/2000/svg"
   xmlns:sodipodi="http://sodipodi.sourceforge.net/DTD/sodipodi-0.dtd"
   xmlns:inkscape="http://www.inkscape.org/namespaces/inkscape"
   width="1052.3622"
   height="744.09448"
   id="svg2"
   sodipodi:version="0.32"
   inkscape:version="0.46"
   sodipodi:docname="take-a-book.svg"
   inkscape:output_extension="org.inkscape.output.svg.inkscape"
   version="1.0">
  <defs
     id="defs4">
    <marker
       id="marker44971"
       orient="auto"
       markerHeight="5.7450781"
       markerWidth="4.6297355">
      <g
         id="g18059"
         transform="matrix(0.5,0,0,0.5,-185.64299,-257.19655)">
        <path
           sodipodi:nodetypes="csccccccsccssssssssssssssccc"
           id="path18061"
           d="M 370,508.65625 C 369.13933,508.715 368.39056,509.27755 368.09375,510.09375 C 367.82399,510.83551 368.03605,511.62868 368.53125,512.21875 L 366.78125,512.21875 C 366.73884,512.21408 366.69882,512.22093 366.65625,512.21875 L 366.65625,516.59375 L 366.78125,516.59375 L 368.53125,516.59375 C 367.85229,517.45345 367.83424,518.70924 368.625,519.5 C 369.47591,520.35091 370.89909,520.35091 371.75,519.5 L 375.09375,516.125 C 375.12672,516.09552 375.15802,516.06422 375.1875,516.03125 C 375.21972,516.01191 375.25101,515.99105 375.28125,515.96875 C 375.28162,515.96839 375.49976,515.68796 375.5,515.6875 C 375.50005,515.68741 375.49338,515.64282 375.5,515.625 C 375.5011,515.62203 375.53002,515.62832 375.53125,515.625 C 375.57039,515.57293 375.58228,515.57321 375.625,515.5 C 375.76199,515.26524 375.79184,515.12809 375.78125,515.15625 C 375.81807,515.06473 375.79977,515.04374 375.8125,515 C 375.82311,514.98978 375.83353,514.97936 375.84375,514.96875 C 375.90379,514.74477 375.93181,514.45186 375.90625,514.1875 C 375.89266,513.98387 375.84739,513.88985 375.84375,513.875 C 375.84389,513.86458 375.84389,513.85417 375.84375,513.84375 C 375.86975,513.94071 375.85901,513.85978 375.75,513.59375 C 375.69753,513.46336 375.66014,513.37439 375.625,513.3125 C 375.57262,513.22275 375.49154,513.05015 375.28125,512.84375 L 371.75,509.3125 C 371.29355,508.82579 370.66491,508.60087 370,508.65625 z"
           style="fill:#ffffff;fill-opacity:1;fill-rule:evenodd;stroke:none;stroke-width:2;stroke-linecap:round;stroke-linejoin:round;stroke-miterlimit:4;stroke-opacity:1" />
        <path
           sodipodi:nodetypes="cccscccsssssssscccsccc"
           id="path18063"
           d="M 366.65625,515.40625 L 371.28125,515.40625 L 369.46875,517.21875 C 369.0718,517.6157 369.0718,518.2593 369.46875,518.65625 C 369.8657,519.0532 370.5093,519.0532 370.90625,518.65625 L 374.34375,515.1875 L 374.4375,515.125 C 374.44343,515.11918 374.43171,515.09972 374.4375,515.09375 C 374.49291,515.03659 374.5526,514.97676 374.59375,514.90625 C 374.62239,514.85717 374.63663,514.80216 374.65625,514.75 C 374.66861,514.71928 374.67831,514.68783 374.6875,514.65625 C 374.71862,514.54015 374.73024,514.43132 374.71875,514.3125 C 374.71489,514.25466 374.70138,514.21285 374.6875,514.15625 C 374.6766,514.1156 374.67237,514.07059 374.65625,514.03125 C 374.63982,513.99042 374.61578,513.94505 374.59375,513.90625 C 374.5483,513.82838 374.50015,513.74899 374.4375,513.6875 L 370.90625,510.15625 C 370.69734,509.93349 370.39809,509.8184 370.09375,509.84375 C 369.69897,509.8707 369.35398,510.12813 369.21875,510.5 C 369.08351,510.87187 369.18349,511.28826 369.46875,511.5625 L 371.34375,513.40625 L 366.65625,513.40625"
           style="fill:#d9d9cd;fill-opacity:1;fill-rule:evenodd;stroke:none;stroke-width:2;stroke-linecap:round;stroke-linejoin:round;stroke-miterlimit:4;stroke-dasharray:none;stroke-opacity:1" />
      </g>
    </marker>
    <inkscape:perspective
       sodipodi:type="inkscape:persp3d"
       inkscape:vp_x="0 : 526.18109 : 1"
       inkscape:vp_y="0 : 1000 : 0"
       inkscape:vp_z="744.09448 : 526.18109 : 1"
       inkscape:persp3d-origin="372.04724 : 350.78739 : 1"
       id="perspective10" />
  </defs>
  <sodipodi:namedview
     id="base"
     pagecolor="#ffffff"
     bordercolor="#666666"
     borderopacity="1.0"
     gridtolerance="10000"
     guidetolerance="10"
     objecttolerance="10"
     inkscape:pageopacity="0.0"
     inkscape:pageshadow="2"
     inkscape:zoom="0.7"
     inkscape:cx="585.67802"
     inkscape:cy="291.6198"
     inkscape:document-units="px"
     inkscape:current-layer="layer1"
     showgrid="false"
     inkscape:window-width="1680"
     inkscape:window-height="1026"
     inkscape:window-x="1280"
     inkscape:window-y="0" />
  <metadata
     id="metadata7">
    <rdf:RDF>
      <cc:Work
         rdf:about="">
        <dc:format>image/svg+xml</dc:format>
        <dc:type
           rdf:resource="http://purl.org/dc/dcmitype/StillImage" />
      </cc:Work>
    </rdf:RDF>
  </metadata>
  <g
     inkscape:label="Layer 1"
     inkscape:groupmode="layer"
     id="layer1">
    <g
       transform="matrix(0.9674741,0,0,0.9674741,38.19886,276.33146)"
       id="g28366">
      <rect
         style="opacity:1;fill:#49c2f1;fill-opacity:1;fill-rule:nonzero;stroke:none;stroke-width:3;stroke-linecap:butt;stroke-linejoin:miter;marker:none;marker-start:none;marker-mid:none;marker-end:none;stroke-miterlimit:4;stroke-dasharray:none;stroke-dashoffset:0;stroke-opacity:1;visibility:visible;display:inline;overflow:visible;enable-background:accumulate"
         id="rect28346"
         width="988.78851"
         height="288.26358"
         x="9.9936447"
         y="-39.152622"
         ry="44.684383"
         rx="48.487324" />
      <flowRoot
         xml:space="preserve"
         id="flowRoot2417"
         style="font-size:138.24949646px;font-style:normal;font-variant:normal;font-weight:bold;font-stretch:normal;text-align:start;line-height:100%;writing-mode:lr-tb;text-anchor:start;fill:#ffffff;fill-opacity:1;stroke:none;stroke-width:1px;stroke-linecap:butt;stroke-linejoin:miter;stroke-opacity:1;font-family:Helvetica Rounded LT Std;-inkscape-font-specification:Helvetica Rounded LT Std Bold"
         transform="matrix(1.0766129,0,0,1.0766129,-22.318469,-32.528215)"><flowRegion
           id="flowRegion2419"><rect
             id="rect2421"
             width="1062.2441"
             height="312.9903"
             x="62.857143"
             y="52.362183"
             style="font-size:138.24949646px;font-style:normal;font-variant:normal;font-weight:bold;font-stretch:normal;text-align:start;line-height:100%;writing-mode:lr-tb;text-anchor:start;fill:#ffffff;fill-opacity:1;font-family:Helvetica Rounded LT Std;-inkscape-font-specification:Helvetica Rounded LT Std Bold" /></flowRegion><flowPara
           id="flowPara5402">Free Book</flowPara></flowRoot>    </g>
    <flowRoot
       xml:space="preserve"
       id="flowRoot2383"
       style="font-size:56px;font-style:normal;font-variant:normal;font-weight:bold;font-stretch:normal;text-align:start;line-height:100%;writing-mode:lr-tb;text-anchor:start;fill:#000000;fill-opacity:1;stroke:none;stroke-width:1px;stroke-linecap:butt;stroke-linejoin:miter;stroke-opacity:1;font-family:Helvetica Rounded LT Std;-inkscape-font-specification:Helvetica Rounded LT Std Bold"
       transform="translate(-8.864298,41.57302)"><flowRegion
         id="flowRegion2385"><rect
           id="rect2387"
           width="907.14282"
           height="295.71429"
           x="62.857143"
           y="52.362183"
           style="font-size:56px;font-style:normal;font-variant:normal;font-weight:bold;font-stretch:normal;text-align:start;line-height:100%;writing-mode:lr-tb;text-anchor:start;font-family:Helvetica Rounded LT Std;-inkscape-font-specification:Helvetica Rounded LT Std Bold" /></flowRegion><flowPara
         id="flowPara2395"
         style="font-size:56px">Rich Internet Applications</flowPara><flowPara
         id="flowPara2391"
         style="font-size:50px;font-style:normal;font-variant:normal;font-weight:300;font-stretch:normal;font-family:Helvetica LT Std;-inkscape-font-specification:Helvetica LT Std Light">with pure Java</flowPara></flowRoot>    <g
       id="g5987"
       transform="matrix(0.6377405,0,0,0.6377405,283.43336,201.58009)">
      <g
         transform="matrix(0.7998127,0,0,0.7998127,473.89864,211.23504)"
         id="g2955">
        <g
           id="g37"
           transform="matrix(0,-3.5285026,-3.5285026,0,200.74607,672.91529)">
          <path
             d="M 0,0 C -0.094,0.375 -0.164,0.773 -0.164,1.148 C -0.164,2.319 0.351,2.366 1.546,2.366 L 9.861,2.366 L 9.861,0.094 L 11.032,0.094 L 11.032,2.366 L 14.405,2.366 L 14.405,3.772 L 11.032,3.772 L 11.032,5.481 L 9.861,5.481 L 9.861,3.772 L 0.984,3.772 C -0.82,3.772 -1.429,2.998 -1.429,1.616 C -1.429,0.937 -1.218,0.328 -1.148,0 L 0,0"
             style="fill:#231f20;fill-opacity:1;fill-rule:nonzero;stroke:none"
             id="path39" />
        </g>
        <g
           id="g41"
           transform="matrix(0,-3.5285026,-3.5285026,0,211.1481,676.80017)">
          <path
             d="M 0,0 L 6.535,0 C 7.378,0 8.057,-0.023 8.831,-0.304 C 10.072,-0.75 11.196,-1.944 11.196,-3.677 C 11.196,-5.926 10.095,-6.816 7.917,-6.816 L 0,-6.816 L 0,-8.221 L 7.941,-8.221 C 8.948,-8.221 9.861,-8.198 10.728,-7.612 C 11.993,-6.746 12.461,-5.387 12.461,-3.911 C 12.461,-2.225 11.641,-1.124 10.447,0 L 16.865,0 L 16.865,1.405 L 0,1.405 L 0,0"
             style="fill:#231f20;fill-opacity:1;fill-rule:nonzero;stroke:none"
             id="path43" />
        </g>
        <g
           id="g45"
           transform="matrix(0,-3.5285026,-3.5285026,0,255.3567,676.80017)">
          <path
             d="M 0,0 L 12.133,0 L 12.133,1.4058 L 0,1.4058 L 0,0 z M 14.78,-0.07 L 16.8647,-0.07 L 16.8647,1.4759 L 14.78,1.4759 L 14.78,-0.07 z"
             style="fill:#231f20;fill-opacity:1;fill-rule:evenodd;stroke:none"
             id="path47" />
        </g>
        <g
           id="g49"
           transform="matrix(0,-3.5285026,-3.5285026,0,270.47281,653.73788)">
          <path
             d="M 0,0 C 0.843,0 1.522,-0.023 2.295,-0.305 C 3.537,-0.75 4.661,-1.944 4.661,-3.677 C 4.661,-5.925 3.56,-6.816 1.382,-6.816 L -6.535,-6.816 L -6.535,-8.221 L 1.405,-8.221 C 2.413,-8.221 3.326,-8.198 4.192,-7.612 C 5.457,-6.745 5.926,-5.387 5.926,-3.912 C 5.926,-2.225 5.106,-1.124 3.912,0 L 5.598,0 L 5.598,1.405 L -6.535,1.405 L -6.535,0 L 0,0"
             style="fill:#231f20;fill-opacity:1;fill-rule:evenodd;stroke:none"
             id="path51" />
        </g>
        <g
           id="g53"
           transform="matrix(0,-3.5285026,-3.5285026,0,313.60522,676.80017)">
          <path
             d="M 0,0 L 4.591,0 L 6.769,-2.295 L 0,-6.84 L 0,-8.409 L 7.753,-3.326 L 12.133,-7.87 L 12.133,-5.949 L 6.371,0 L 16.865,0 L 16.865,1.406 L 0,1.406 L 0,0"
             style="fill:#231f20;fill-opacity:1;fill-rule:nonzero;stroke:none"
             id="path55" />
        </g>
        <g
           id="g57"
           transform="matrix(0,-3.5285026,-3.5285026,0,353.53026,676.80017)">
          <path
             d="M 0,0 L 12.133,0 L 12.133,1.4058 L 0,1.4058 L 0,0 z M 14.78,-0.069 L 16.8647,-0.069 L 16.8647,1.4765 L 14.78,1.4765 L 14.78,-0.069 z"
             style="fill:#231f20;fill-opacity:1;fill-rule:evenodd;stroke:none"
             id="path59" />
        </g>
        <g
           id="g61"
           transform="matrix(0,-3.5285026,-3.5285026,0,368.64277,653.73788)">
          <path
             d="M 0,0 C 0.843,0 1.522,-0.023 2.295,-0.305 C 3.537,-0.75 4.661,-1.944 4.661,-3.678 C 4.661,-5.926 3.56,-6.817 1.382,-6.817 L -6.535,-6.817 L -6.535,-8.222 L 1.405,-8.222 C 2.413,-8.222 3.326,-8.198 4.192,-7.613 C 5.457,-6.746 5.926,-5.388 5.926,-3.912 C 5.926,-2.226 5.106,-1.125 3.912,0 L 5.598,0 L 5.598,1.405 L -6.535,1.405 L -6.535,0 L 0,0"
             style="fill:#231f20;fill-opacity:1;fill-rule:evenodd;stroke:none"
             id="path63" />
        </g>
        <g
           id="g65"
           transform="matrix(0,-3.5285026,-3.5285026,0,440.20792,655.55859)">
          <path
             d="M 0,0 C -2.741,0 -5.083,1.546 -5.083,4.099 C -5.083,7.004 -2.623,8.362 0.421,8.245 C 3.467,8.222 5.176,6.465 5.176,4.099 C 5.176,1.452 2.928,0 0,0 z M 3.982,0 L 3.982,0.047 C 5.575,0.867 6.441,2.717 6.441,4.263 C 6.441,8.175 3.654,9.744 0.07,9.744 C -3.326,9.744 -6.348,8.034 -6.348,4.334 C -6.348,2.624 -5.551,0.89 -4.076,0 C -6.863,-0.07 -9.721,0.445 -9.721,4.287 C -9.721,5.95 -9.323,7.496 -7.496,7.917 L -7.496,9.416 C -8.948,9.322 -10.986,7.847 -10.986,4.287 C -10.986,-0.328 -8.105,-1.405 -4.849,-1.405 L 6.113,-1.405 L 6.113,0 L 3.982,0"
             style="fill:#231f20;fill-opacity:1;fill-rule:evenodd;stroke:none"
             id="path67" />
        </g>
        <g
           id="g69"
           transform="matrix(0,-3.5285026,-3.5285026,0,492.66968,677.95752)">
          <path
             d="M 0,0 C 0,-3.397 2.553,-5.622 6.395,-5.622 C 9.955,-5.622 12.789,-3.795 12.789,0 C 12.789,3.747 9.932,5.621 6.395,5.621 C 2.155,5.621 0.047,3.091 0,0 z M 6.395,-4.123 C 3.795,-4.123 1.265,-2.952 1.265,0 C 1.265,2.693 3.373,4.122 6.395,4.122 C 9.018,4.122 11.524,2.951 11.524,0 C 11.524,-2.975 9.252,-4.099 6.395,-4.123"
             style="fill:#231f20;fill-opacity:1;fill-rule:evenodd;stroke:none"
             id="path71" />
        </g>
        <g
           id="g73"
           transform="matrix(0,-3.5285026,-3.5285026,0,521.17644,638.1172)">
          <path
             d="M 0,0 L -10.962,0 L -10.962,-1.405 L 0,-1.405 L 0,-3.748 L 1.171,-3.748 L 1.171,-1.405 L 2.67,-1.405 C 3.771,-1.405 4.965,-1.452 4.965,-2.904 C 4.965,-3.162 4.919,-3.466 4.849,-3.748 L 6.137,-3.748 C 6.207,-3.373 6.23,-2.998 6.23,-2.577 C 6.23,-0.703 5.013,0 3.092,0 L 1.171,0 L 1.171,1.804 L 0,1.804 L 0,0"
             style="fill:#231f20;fill-opacity:1;fill-rule:nonzero;stroke:none"
             id="path75" />
        </g>
        <g
           id="g77"
           transform="matrix(0,-3.5285026,-3.5285026,0,560.90741,654.40124)">
          <path
             d="M 0,0 C -4.31,0 -6.793,-2.131 -6.793,-6.534 C -6.793,-10.891 -4.38,-13.07 0,-13.07 L 10.517,-13.07 L 10.517,-11.477 L 0.469,-11.477 C -3.513,-11.477 -5.434,-10.165 -5.434,-6.534 C -5.434,-3.092 -3.701,-1.592 0.469,-1.592 L 10.517,-1.592 L 10.517,0 L 0,0"
             style="fill:#231f20;fill-opacity:1;fill-rule:nonzero;stroke:none"
             id="path79" />
        </g>
        <g
           id="g81"
           transform="matrix(0,-3.5285026,-3.5285026,0,665.77094,661.01365)">
          <path
             d="M 0,0 C -2.46,0 -3.537,2.202 -3.537,4.427 C -3.537,5.762 -2.834,7.05 -1.359,7.05 C 0.281,7.05 1.054,5.762 1.218,3.63 C 1.312,2.413 1.406,1.194 1.897,0 L 0,0 z M 2.342,4.31 C 1.967,7.144 0.726,8.55 -1.312,8.55 C -3.654,8.55 -4.802,6.629 -4.802,4.497 C -4.802,2.74 -4.099,1.148 -2.787,-0.023 C -3.631,-0.047 -4.45,-0.211 -4.591,-1.148 C -4.638,-1.358 -4.661,-1.546 -4.661,-1.78 C -4.661,-2.179 -4.497,-2.67 -4.427,-2.881 L -3.326,-2.881 C -3.748,-1.687 -3.49,-1.405 -2.389,-1.405 L 4.216,-1.405 C 7.027,-1.405 7.987,0.539 7.987,2.998 C 7.987,5.645 6.84,7.777 3.982,7.987 L 3.982,6.559 C 6.09,6.301 6.722,4.965 6.722,3.022 C 6.722,0.843 5.692,0 4.263,0 C 3.841,0 3.209,0.047 2.998,0.515 C 2.787,0.983 2.647,1.85 2.6,2.366 L 2.342,4.31"
             style="fill:#231f20;fill-opacity:1;fill-rule:evenodd;stroke:none"
             id="path83" />
        </g>
        <g
           id="g85"
           transform="matrix(0,-3.5285026,-3.5285026,0,686.17628,653.73788)">
          <path
             d="M 0,0 C 0.843,0 1.522,-0.023 2.295,-0.305 C 3.537,-0.75 4.661,-1.944 4.661,-3.678 C 4.661,-5.926 3.56,-6.817 1.382,-6.817 L -6.535,-6.817 L -6.535,-8.222 L 1.405,-8.222 C 2.413,-8.222 3.326,-8.198 4.192,-7.613 C 5.457,-6.746 5.926,-5.387 5.926,-3.912 C 5.926,-2.225 5.106,-1.124 3.912,0 L 5.598,0 L 5.598,1.405 L -6.535,1.405 L -6.535,0 L 0,0"
             style="fill:#231f20;fill-opacity:1;fill-rule:evenodd;stroke:none"
             id="path87" />
        </g>
        <g
           id="g89"
           transform="matrix(0,-3.5285026,-3.5285026,0,757.74135,655.22691)">
          <path
             d="M 0,0 C -2.928,0 -5.177,1.452 -5.177,4.099 C -5.177,6.465 -3.467,8.222 -0.422,8.245 C 2.623,8.363 5.083,7.004 5.083,4.099 C 5.083,1.546 2.741,0 0,0 z M 4.076,0 C 5.551,0.89 6.348,2.624 6.348,4.334 C 6.348,8.035 3.326,9.744 -0.071,9.744 C -3.654,9.744 -6.442,8.175 -6.442,4.264 C -6.442,2.717 -5.575,0.867 -3.982,0.047 L -3.982,0 L -6.114,0 L -6.114,-1.405 L 10.751,-1.405 L 10.751,0 L 4.076,0"
             style="fill:#231f20;fill-opacity:1;fill-rule:evenodd;stroke:none"
             id="path91" />
        </g>
        <path
           d="M 801.52656,676.80017 L 801.52656,617.29198 L 795.90455,617.29198 L 795.90455,676.80017 L 801.52656,676.80017 z"
           style="fill:#231f20;fill-opacity:1;fill-rule:nonzero;stroke:none"
           id="path93" />
      </g>
      <g
         transform="matrix(1.0501533,0,0,1.0501533,-168.35881,186.85533)"
         id="g2986">
        <g
           id="g95"
           transform="matrix(0,-3.3210903,-3.3210903,0,532.37131,488.56984)">
          <path
             d="M 0,0 C -1.308,0 -1.968,1.021 -1.968,1.968 L -1.968,2.186 C -1.968,3.134 -1.308,4.154 0,4.154 L 0.294,4.154 C 1.602,4.154 2.262,3.134 2.262,2.186 L 2.262,1.968 C 2.262,1.021 1.602,0 0.294,0 L 0,0 z M -13.13,40.413 C -13.272,39.303 -14.207,38.742 -15.079,38.742 C -16.027,38.742 -17.047,39.402 -17.047,40.71 L -17.047,42.381 C -17.047,43.072 -16.663,43.695 -16.105,44.047 C -16.759,45.148 -17.133,46.439 -17.133,47.832 C -17.133,51.758 -13.854,55.082 -9.882,55.082 C -5.808,55.082 -2.38,51.907 -2.38,47.748 C -2.38,43.782 -5.551,40.474 -9.521,40.414 L -13.13,40.413 z M -9.684,44.454 C -7.897,44.454 -6.439,45.941 -6.439,47.748 C -6.439,49.596 -7.962,51.041 -9.829,51.041 C -11.599,51.041 -13.074,49.546 -13.074,47.796 C -13.074,45.914 -11.565,44.454 -9.684,44.454 z M -6.395,14.939 C -6.395,16.726 -7.883,18.184 -9.689,18.184 C -11.537,18.184 -12.983,16.661 -12.983,14.795 C -12.983,13.024 -11.488,11.549 -9.737,11.549 C -7.856,11.549 -6.395,13.058 -6.395,14.939 z M -13.098,7.491 C -13.24,6.38 -14.175,5.82 -15.047,5.82 C -15.995,5.82 -17.015,6.48 -17.015,7.788 L -17.015,9.459 C -17.015,10.161 -16.618,10.793 -16.043,11.143 C -16.663,12.205 -17.023,13.435 -17.023,14.741 C -17.023,18.816 -13.848,22.243 -9.689,22.243 C -5.687,22.243 -2.354,19.014 -2.354,14.992 C -2.354,13.705 -2.668,12.489 -3.229,11.427 L 0.596,11.427 C 1.905,11.427 2.369,10.406 2.369,9.459 C 2.369,8.512 1.905,7.491 0.596,7.491 L -13.098,7.491 z M -15.999,65.35 L -6.427,69.377 L -6.427,69.629 C -6.427,70.939 -5.405,71.6 -4.456,71.6 C -3.508,71.6 -2.486,70.939 -2.486,69.629 L -2.486,68.069 C -2.486,67.234 -3.028,66.522 -3.7,66.25 L -11.784,63.164 L -3.686,60.074 C -3.061,59.793 -2.486,59.11 -2.486,58.26 L -2.486,56.699 C -2.486,55.389 -3.508,54.729 -4.456,54.729 C -5.405,54.729 -6.427,55.389 -6.427,56.699 L -6.427,56.951 L -15.999,60.978 C -16.645,61.257 -17.203,61.755 -17.203,63.159 C -17.203,64.571 -16.647,65.071 -15.999,65.35 z M -13.13,24.129 C -13.272,23.019 -14.207,22.459 -15.079,22.459 C -16.027,22.459 -17.047,23.119 -17.047,24.427 L -17.047,26.097 C -17.047,26.788 -16.663,27.411 -16.105,27.764 C -16.759,28.865 -17.133,30.155 -17.133,31.548 C -17.133,35.474 -13.854,38.798 -9.882,38.798 C -5.808,38.798 -2.38,35.624 -2.38,31.464 C -2.38,27.499 -5.551,24.191 -9.521,24.13 L -13.13,24.129 z M -9.684,28.17 C -7.897,28.17 -6.439,29.657 -6.439,31.464 C -6.439,33.312 -7.962,34.757 -9.829,34.757 C -11.599,34.757 -13.074,33.263 -13.074,31.512 C -13.074,29.631 -11.565,28.17 -9.684,28.17 z M -8.988,-7.939 L -15.399,-7.929 C -16.707,-7.929 -17.047,-6.978 -17.047,-5.733 C -17.047,-4.785 -16.707,-3.765 -15.399,-3.765 C -15.272,-3.756 -6.754,-3.751 -6.754,-3.751 C -6.612,-2.64 -5.676,-2.08 -4.804,-2.08 C -3.856,-2.08 -2.835,-2.74 -2.835,-4.048 L -2.835,-5.719 C -2.835,-6.401 -3.212,-7.021 -3.763,-7.376 C -2.836,-8.513 -2.346,-10.106 -2.346,-11.61 C -2.346,-15.813 -5.436,-18.397 -9.272,-18.41 L -13.123,-18.413 C -13.265,-19.524 -14.2,-20.084 -15.073,-20.084 C -16.021,-20.084 -17.041,-19.424 -17.041,-18.116 L -17.041,-16.227 C -17.041,-15.168 -16.133,-14.259 -15.073,-14.259 L -14.546,-14.259 L -9.045,-14.261 C -7.303,-14.261 -5.962,-13.122 -5.962,-11.067 C -5.962,-9.426 -7.328,-7.939 -8.988,-7.939 z M -17.047,0.392 L -17.047,2.062 C -17.047,3.122 -16.139,4.03 -15.079,4.03 L -4.784,4.03 C -3.476,4.03 -2.816,3.01 -2.816,2.062 L -2.816,1.845 C -2.816,0.898 -3.476,-0.123 -4.784,-0.123 L -13.129,-0.123 C -13.271,-1.234 -14.207,-1.794 -15.079,-1.794 C -16.027,-1.794 -17.047,-1.134 -17.047,0.174 L -17.047,0.392"
             style="fill:#231f20;fill-opacity:1;fill-rule:evenodd;stroke:none"
             id="path97" />
        </g>
        <g
           id="g99"
           transform="matrix(0,-3.3210903,-3.3210903,0,709.55812,524.65017)">
          <path
             d="M 0,0 L -3.595,10.65 L -3.82,10.65 C -4.989,10.65 -5.579,11.562 -5.579,12.409 C -5.579,13.256 -4.989,14.168 -3.82,14.168 L -2.427,14.168 C -1.681,14.168 -1.046,13.684 -0.803,13.085 L 1.951,3.763 L 4.711,13.096 C 4.961,13.655 5.571,14.168 6.33,14.168 L 7.724,14.168 C 8.893,14.168 9.483,13.256 9.483,12.409 C 9.483,11.562 8.893,10.65 7.724,10.65 L 7.499,10.65 L 3.903,0 C 3.655,-0.577 3.21,-1.075 1.956,-1.075 C 0.696,-1.075 0.249,-0.579 0,0 z M -8.275,23.902 L -1.521,23.902 C 1.552,23.902 1.789,21.538 1.89,20.356 C 2.059,21.538 2.295,23.902 5.368,23.902 L 12.122,23.902 C 13.54,23.902 14.149,24.543 14.149,25.489 L 14.149,26.333 C 14.149,27.211 14.621,27.853 15.668,27.853 C 16.647,27.853 17.188,27.211 17.188,26.333 L 17.188,23.835 C 17.188,20.897 15.803,19.444 12.696,19.444 L 5.807,19.444 C 3.747,19.444 3.544,18.566 3.544,17.722 C 3.544,16.607 2.734,16.101 1.924,16.101 C 1.113,16.101 0.302,16.607 0.302,17.722 C 0.302,18.566 0.1,19.444 -1.96,19.444 L -8.849,19.444 C -11.956,19.444 -13.341,20.897 -13.341,23.835 L -13.341,26.333 C -13.341,27.211 -12.801,27.853 -11.821,27.853 C -10.774,27.853 -10.301,27.211 -10.301,26.333 L -10.301,25.489 C -10.301,24.543 -9.694,23.902 -8.275,23.902"
             style="fill:#1fc4f4;fill-opacity:1;fill-rule:nonzero;stroke:none"
             id="path101" />
        </g>
      </g>
    </g>
    <g
       id="g2437"
       transform="matrix(0.7501059,0,0,0.7501059,60.817569,383.81042)">
      <g
         transform="matrix(29.999985,-3.0198881e-2,3.0198881e-2,29.999985,-11011.509,-15473.062)"
         id="g2439">
        <g
           id="g2441"
           transform="matrix(0,1,-1,0,885.44735,155.2801)"
           style="fill:#49c2f1;fill-opacity:1">
          <path
             id="path2443"
             d="M 142.5625,-6.4375 L 40.6875,-6.34375 C 29.868538,-6.48507 19.811533,-0.790227 14.367338,8.560208 C 8.9231424,17.910644 8.9351814,29.468085 14.398845,38.807157 C 19.862509,48.14623 29.931356,53.820109 40.75,53.65625 L 142.625,53.5625 C 153.44396,53.70382 163.50097,48.008977 168.94516,38.658542 C 174.38936,29.308106 174.37732,17.750665 168.91365,8.411593 C 163.44999,-0.92748 153.38114,-6.601359 142.5625,-6.4375 L 142.5625,-6.4375 z"
             style="fill:#49c2f1;fill-opacity:1;fill-rule:evenodd;stroke:none;stroke-width:60;stroke-linecap:round;stroke-linejoin:round;stroke-miterlimit:4;stroke-dasharray:none;stroke-opacity:1;display:inline"
             transform="matrix(3.3333316e-2,3.3554312e-5,-3.3554312e-5,3.3333316e-2,366.53421,512.86995)" />
          <path
             sodipodi:nodetypes="cccscccsssssssscccsccc"
             id="path2445"
             d="M 362.41915,514.66862 L 371.28201,514.67289 L 369.46951,516.48539 C 369.07256,516.88234 369.07256,517.52594 369.46951,517.92289 C 369.86646,518.31984 370.51006,518.31984 370.90701,517.92289 L 374.34451,514.45414 L 374.43826,514.39164 C 374.44419,514.38582 374.43247,514.36636 374.43826,514.36039 C 374.49367,514.30323 374.55336,514.2434 374.59451,514.17289 C 374.62315,514.12381 374.63739,514.0688 374.65701,514.01664 C 374.66937,513.98592 374.67907,513.95447 374.68826,513.92289 C 374.71938,513.80679 374.731,513.69796 374.71951,513.57914 C 374.71565,513.5213 374.70214,513.47949 374.68826,513.42289 C 374.67736,513.38224 374.67313,513.33723 374.65701,513.29789 C 374.64058,513.25706 374.61654,513.21169 374.59451,513.17289 C 374.54906,513.09502 374.50091,513.01563 374.43826,512.95414 L 370.90701,509.42289 C 370.6981,509.20013 370.39885,509.08504 370.09451,509.11039 C 369.69973,509.13734 369.35474,509.39477 369.21951,509.76664 C 369.08427,510.13851 369.18425,510.5549 369.46951,510.82914 L 371.34451,512.67289 L 362.48057,512.66869"
             style="fill:#49c2f1;fill-opacity:1;fill-rule:evenodd;stroke:none;stroke-width:2;stroke-linecap:round;stroke-linejoin:round;stroke-miterlimit:4;stroke-dasharray:none;stroke-opacity:1" />
        </g>
      </g>
    </g>
  </g>
</svg>
