<?xml version="1.0" encoding="UTF-8" standalone="no"?>
<!-- Created with Inkscape (http://www.inkscape.org/) -->
<svg
   xmlns:dc="http://purl.org/dc/elements/1.1/"
   xmlns:cc="http://creativecommons.org/ns#"
   xmlns:rdf="http://www.w3.org/1999/02/22-rdf-syntax-ns#"
   xmlns:svg="http://www.w3.org/2000/svg"
   xmlns="http://www.w3.org/2000/svg"
   xmlns:sodipodi="http://sodipodi.sourceforge.net/DTD/sodipodi-0.dtd"
   xmlns:inkscape="http://www.inkscape.org/namespaces/inkscape"
   width="1052.3622"
   height="744.09448"
   id="svg2"
   sodipodi:version="0.32"
   inkscape:version="0.46"
   sodipodi:docname="vaadin-take-a-book.svg"
   inkscape:output_extension="org.inkscape.output.svg.inkscape"
   version="1.0">
  <defs
     id="defs4">
    <inkscape:perspective
       sodipodi:type="inkscape:persp3d"
       inkscape:vp_x="0 : 526.18109 : 1"
       inkscape:vp_y="0 : 1000 : 0"
       inkscape:vp_z="744.09448 : 526.18109 : 1"
       inkscape:persp3d-origin="372.04724 : 350.78739 : 1"
       id="perspective10" />
  </defs>
  <sodipodi:namedview
     id="base"
     pagecolor="#ffffff"
     bordercolor="#666666"
     borderopacity="1.0"
     gridtolerance="10000"
     guidetolerance="10"
     objecttolerance="10"
     inkscape:pageopacity="0.0"
     inkscape:pageshadow="2"
     inkscape:zoom="0.98994949"
     inkscape:cx="463.79356"
     inkscape:cy="373.21202"
     inkscape:document-units="px"
     inkscape:current-layer="layer1"
     showgrid="false"
     inkscape:window-width="1674"
     inkscape:window-height="1023"
     inkscape:window-x="0"
     inkscape:window-y="0" />
  <metadata
     id="metadata7">
    <rdf:RDF>
      <cc:Work
         rdf:about="">
        <dc:format>image/svg+xml</dc:format>
        <dc:type
           rdf:resource="http://purl.org/dc/dcmitype/StillImage" />
      </cc:Work>
    </rdf:RDF>
  </metadata>
  <g
     inkscape:label="Layer 1"
     inkscape:groupmode="layer"
     id="layer1">
    <flowRoot
       xml:space="preserve"
       id="flowRoot2383"
       style="font-size:56px;font-style:normal;font-variant:normal;font-weight:bold;font-stretch:normal;text-align:start;line-height:100%;writing-mode:lr-tb;text-anchor:start;fill:#000000;fill-opacity:1;stroke:none;stroke-width:1px;stroke-linecap:butt;stroke-linejoin:miter;stroke-opacity:1;font-family:Helvetica Rounded LT Std;-inkscape-font-specification:Helvetica Rounded LT Std Bold"
       transform="translate(143.43656,-3.0007214)"><flowRegion
         id="flowRegion2385"><rect
           id="rect2387"
           width="907.14282"
           height="295.71429"
           x="62.857143"
           y="52.362183"
           style="font-size:56px;font-style:normal;font-variant:normal;font-weight:bold;font-stretch:normal;text-align:start;line-height:100%;writing-mode:lr-tb;text-anchor:start;font-family:Helvetica Rounded LT Std;-inkscape-font-specification:Helvetica Rounded LT Std Bold" /></flowRegion><flowPara
         id="flowPara2389">Rich</flowPara><flowPara
         id="flowPara2393">      Internet</flowPara><flowPara
         id="flowPara2395">          Applications</flowPara><flowPara
         id="flowPara2391">               with pure Java</flowPara></flowRoot>    <flowRoot
       xml:space="preserve"
       id="flowRoot2417"
       style="font-size:100px;font-style:normal;font-variant:normal;font-weight:bold;font-stretch:normal;text-align:start;line-height:100%;writing-mode:lr-tb;text-anchor:start;fill:#000000;fill-opacity:1;stroke:none;stroke-width:1px;stroke-linecap:butt;stroke-linejoin:miter;stroke-opacity:1;font-family:Helvetica Rounded LT Std;-inkscape-font-specification:Helvetica Rounded LT Std Bold"
       transform="translate(162.06715,298.54457)"><flowRegion
         id="flowRegion2419"><rect
           id="rect2421"
           width="642.85712"
           height="272.85715"
           x="62.857143"
           y="52.362183"
           style="font-size:100px;font-style:normal;font-variant:normal;font-weight:bold;font-stretch:normal;text-align:start;line-height:100%;writing-mode:lr-tb;text-anchor:start;font-family:Helvetica Rounded LT Std;-inkscape-font-specification:Helvetica Rounded LT Std Bold" /></flowRegion><flowPara
         id="flowPara2429">Take a Book!</flowPara></flowRoot>    <g
       id="g2955"
       transform="matrix(0.7076647,0,0,0.7076647,190.80572,204.26007)">
      <g
         transform="matrix(0,-3.5285026,-3.5285026,0,200.74607,672.91529)"
         id="g37">
        <path
           id="path39"
           style="fill:#231f20;fill-opacity:1;fill-rule:nonzero;stroke:none"
           d="M 0,0 C -0.094,0.375 -0.164,0.773 -0.164,1.148 C -0.164,2.319 0.351,2.366 1.546,2.366 L 9.861,2.366 L 9.861,0.094 L 11.032,0.094 L 11.032,2.366 L 14.405,2.366 L 14.405,3.772 L 11.032,3.772 L 11.032,5.481 L 9.861,5.481 L 9.861,3.772 L 0.984,3.772 C -0.82,3.772 -1.429,2.998 -1.429,1.616 C -1.429,0.937 -1.218,0.328 -1.148,0 L 0,0" />
      </g>
      <g
         transform="matrix(0,-3.5285026,-3.5285026,0,211.1481,676.80017)"
         id="g41">
        <path
           id="path43"
           style="fill:#231f20;fill-opacity:1;fill-rule:nonzero;stroke:none"
           d="M 0,0 L 6.535,0 C 7.378,0 8.057,-0.023 8.831,-0.304 C 10.072,-0.75 11.196,-1.944 11.196,-3.677 C 11.196,-5.926 10.095,-6.816 7.917,-6.816 L 0,-6.816 L 0,-8.221 L 7.941,-8.221 C 8.948,-8.221 9.861,-8.198 10.728,-7.612 C 11.993,-6.746 12.461,-5.387 12.461,-3.911 C 12.461,-2.225 11.641,-1.124 10.447,0 L 16.865,0 L 16.865,1.405 L 0,1.405 L 0,0" />
      </g>
      <g
         transform="matrix(0,-3.5285026,-3.5285026,0,255.3567,676.80017)"
         id="g45">
        <path
           id="path47"
           style="fill:#231f20;fill-opacity:1;fill-rule:evenodd;stroke:none"
           d="M 0,0 L 12.133,0 L 12.133,1.4058 L 0,1.4058 L 0,0 z M 14.78,-0.07 L 16.8647,-0.07 L 16.8647,1.4759 L 14.78,1.4759 L 14.78,-0.07 z" />
      </g>
      <g
         transform="matrix(0,-3.5285026,-3.5285026,0,270.47281,653.73788)"
         id="g49">
        <path
           id="path51"
           style="fill:#231f20;fill-opacity:1;fill-rule:evenodd;stroke:none"
           d="M 0,0 C 0.843,0 1.522,-0.023 2.295,-0.305 C 3.537,-0.75 4.661,-1.944 4.661,-3.677 C 4.661,-5.925 3.56,-6.816 1.382,-6.816 L -6.535,-6.816 L -6.535,-8.221 L 1.405,-8.221 C 2.413,-8.221 3.326,-8.198 4.192,-7.612 C 5.457,-6.745 5.926,-5.387 5.926,-3.912 C 5.926,-2.225 5.106,-1.124 3.912,0 L 5.598,0 L 5.598,1.405 L -6.535,1.405 L -6.535,0 L 0,0" />
      </g>
      <g
         transform="matrix(0,-3.5285026,-3.5285026,0,313.60522,676.80017)"
         id="g53">
        <path
           id="path55"
           style="fill:#231f20;fill-opacity:1;fill-rule:nonzero;stroke:none"
           d="M 0,0 L 4.591,0 L 6.769,-2.295 L 0,-6.84 L 0,-8.409 L 7.753,-3.326 L 12.133,-7.87 L 12.133,-5.949 L 6.371,0 L 16.865,0 L 16.865,1.406 L 0,1.406 L 0,0" />
      </g>
      <g
         transform="matrix(0,-3.5285026,-3.5285026,0,353.53026,676.80017)"
         id="g57">
        <path
           id="path59"
           style="fill:#231f20;fill-opacity:1;fill-rule:evenodd;stroke:none"
           d="M 0,0 L 12.133,0 L 12.133,1.4058 L 0,1.4058 L 0,0 z M 14.78,-0.069 L 16.8647,-0.069 L 16.8647,1.4765 L 14.78,1.4765 L 14.78,-0.069 z" />
      </g>
      <g
         transform="matrix(0,-3.5285026,-3.5285026,0,368.64277,653.73788)"
         id="g61">
        <path
           id="path63"
           style="fill:#231f20;fill-opacity:1;fill-rule:evenodd;stroke:none"
           d="M 0,0 C 0.843,0 1.522,-0.023 2.295,-0.305 C 3.537,-0.75 4.661,-1.944 4.661,-3.678 C 4.661,-5.926 3.56,-6.817 1.382,-6.817 L -6.535,-6.817 L -6.535,-8.222 L 1.405,-8.222 C 2.413,-8.222 3.326,-8.198 4.192,-7.613 C 5.457,-6.746 5.926,-5.388 5.926,-3.912 C 5.926,-2.226 5.106,-1.125 3.912,0 L 5.598,0 L 5.598,1.405 L -6.535,1.405 L -6.535,0 L 0,0" />
      </g>
      <g
         transform="matrix(0,-3.5285026,-3.5285026,0,440.20792,655.55859)"
         id="g65">
        <path
           id="path67"
           style="fill:#231f20;fill-opacity:1;fill-rule:evenodd;stroke:none"
           d="M 0,0 C -2.741,0 -5.083,1.546 -5.083,4.099 C -5.083,7.004 -2.623,8.362 0.421,8.245 C 3.467,8.222 5.176,6.465 5.176,4.099 C 5.176,1.452 2.928,0 0,0 z M 3.982,0 L 3.982,0.047 C 5.575,0.867 6.441,2.717 6.441,4.263 C 6.441,8.175 3.654,9.744 0.07,9.744 C -3.326,9.744 -6.348,8.034 -6.348,4.334 C -6.348,2.624 -5.551,0.89 -4.076,0 C -6.863,-0.07 -9.721,0.445 -9.721,4.287 C -9.721,5.95 -9.323,7.496 -7.496,7.917 L -7.496,9.416 C -8.948,9.322 -10.986,7.847 -10.986,4.287 C -10.986,-0.328 -8.105,-1.405 -4.849,-1.405 L 6.113,-1.405 L 6.113,0 L 3.982,0" />
      </g>
      <g
         transform="matrix(0,-3.5285026,-3.5285026,0,492.66968,677.95752)"
         id="g69">
        <path
           id="path71"
           style="fill:#231f20;fill-opacity:1;fill-rule:evenodd;stroke:none"
           d="M 0,0 C 0,-3.397 2.553,-5.622 6.395,-5.622 C 9.955,-5.622 12.789,-3.795 12.789,0 C 12.789,3.747 9.932,5.621 6.395,5.621 C 2.155,5.621 0.047,3.091 0,0 z M 6.395,-4.123 C 3.795,-4.123 1.265,-2.952 1.265,0 C 1.265,2.693 3.373,4.122 6.395,4.122 C 9.018,4.122 11.524,2.951 11.524,0 C 11.524,-2.975 9.252,-4.099 6.395,-4.123" />
      </g>
      <g
         transform="matrix(0,-3.5285026,-3.5285026,0,521.17644,638.1172)"
         id="g73">
        <path
           id="path75"
           style="fill:#231f20;fill-opacity:1;fill-rule:nonzero;stroke:none"
           d="M 0,0 L -10.962,0 L -10.962,-1.405 L 0,-1.405 L 0,-3.748 L 1.171,-3.748 L 1.171,-1.405 L 2.67,-1.405 C 3.771,-1.405 4.965,-1.452 4.965,-2.904 C 4.965,-3.162 4.919,-3.466 4.849,-3.748 L 6.137,-3.748 C 6.207,-3.373 6.23,-2.998 6.23,-2.577 C 6.23,-0.703 5.013,0 3.092,0 L 1.171,0 L 1.171,1.804 L 0,1.804 L 0,0" />
      </g>
      <g
         transform="matrix(0,-3.5285026,-3.5285026,0,560.90741,654.40124)"
         id="g77">
        <path
           id="path79"
           style="fill:#231f20;fill-opacity:1;fill-rule:nonzero;stroke:none"
           d="M 0,0 C -4.31,0 -6.793,-2.131 -6.793,-6.534 C -6.793,-10.891 -4.38,-13.07 0,-13.07 L 10.517,-13.07 L 10.517,-11.477 L 0.469,-11.477 C -3.513,-11.477 -5.434,-10.165 -5.434,-6.534 C -5.434,-3.092 -3.701,-1.592 0.469,-1.592 L 10.517,-1.592 L 10.517,0 L 0,0" />
      </g>
      <g
         transform="matrix(0,-3.5285026,-3.5285026,0,665.77094,661.01365)"
         id="g81">
        <path
           id="path83"
           style="fill:#231f20;fill-opacity:1;fill-rule:evenodd;stroke:none"
           d="M 0,0 C -2.46,0 -3.537,2.202 -3.537,4.427 C -3.537,5.762 -2.834,7.05 -1.359,7.05 C 0.281,7.05 1.054,5.762 1.218,3.63 C 1.312,2.413 1.406,1.194 1.897,0 L 0,0 z M 2.342,4.31 C 1.967,7.144 0.726,8.55 -1.312,8.55 C -3.654,8.55 -4.802,6.629 -4.802,4.497 C -4.802,2.74 -4.099,1.148 -2.787,-0.023 C -3.631,-0.047 -4.45,-0.211 -4.591,-1.148 C -4.638,-1.358 -4.661,-1.546 -4.661,-1.78 C -4.661,-2.179 -4.497,-2.67 -4.427,-2.881 L -3.326,-2.881 C -3.748,-1.687 -3.49,-1.405 -2.389,-1.405 L 4.216,-1.405 C 7.027,-1.405 7.987,0.539 7.987,2.998 C 7.987,5.645 6.84,7.777 3.982,7.987 L 3.982,6.559 C 6.09,6.301 6.722,4.965 6.722,3.022 C 6.722,0.843 5.692,0 4.263,0 C 3.841,0 3.209,0.047 2.998,0.515 C 2.787,0.983 2.647,1.85 2.6,2.366 L 2.342,4.31" />
      </g>
      <g
         transform="matrix(0,-3.5285026,-3.5285026,0,686.17628,653.73788)"
         id="g85">
        <path
           id="path87"
           style="fill:#231f20;fill-opacity:1;fill-rule:evenodd;stroke:none"
           d="M 0,0 C 0.843,0 1.522,-0.023 2.295,-0.305 C 3.537,-0.75 4.661,-1.944 4.661,-3.678 C 4.661,-5.926 3.56,-6.817 1.382,-6.817 L -6.535,-6.817 L -6.535,-8.222 L 1.405,-8.222 C 2.413,-8.222 3.326,-8.198 4.192,-7.613 C 5.457,-6.746 5.926,-5.387 5.926,-3.912 C 5.926,-2.225 5.106,-1.124 3.912,0 L 5.598,0 L 5.598,1.405 L -6.535,1.405 L -6.535,0 L 0,0" />
      </g>
      <g
         transform="matrix(0,-3.5285026,-3.5285026,0,757.74135,655.22691)"
         id="g89">
        <path
           id="path91"
           style="fill:#231f20;fill-opacity:1;fill-rule:evenodd;stroke:none"
           d="M 0,0 C -2.928,0 -5.177,1.452 -5.177,4.099 C -5.177,6.465 -3.467,8.222 -0.422,8.245 C 2.623,8.363 5.083,7.004 5.083,4.099 C 5.083,1.546 2.741,0 0,0 z M 4.076,0 C 5.551,0.89 6.348,2.624 6.348,4.334 C 6.348,8.035 3.326,9.744 -0.071,9.744 C -3.654,9.744 -6.442,8.175 -6.442,4.264 C -6.442,2.717 -5.575,0.867 -3.982,0.047 L -3.982,0 L -6.114,0 L -6.114,-1.405 L 10.751,-1.405 L 10.751,0 L 4.076,0" />
      </g>
      <path
         id="path93"
         style="fill:#231f20;fill-opacity:1;fill-rule:nonzero;stroke:none"
         d="M 801.52656,676.80017 L 801.52656,617.29198 L 795.90455,617.29198 L 795.90455,676.80017 L 801.52656,676.80017 z" />
    </g>
    <g
       id="g2986"
       transform="matrix(1.0501533,0,0,1.0501533,9.4744365,-9.3079104)">
      <g
         transform="matrix(0,-3.3210903,-3.3210903,0,532.37131,488.56984)"
         id="g95">
        <path
           id="path97"
           style="fill:#231f20;fill-opacity:1;fill-rule:evenodd;stroke:none"
           d="M 0,0 C -1.308,0 -1.968,1.021 -1.968,1.968 L -1.968,2.186 C -1.968,3.134 -1.308,4.154 0,4.154 L 0.294,4.154 C 1.602,4.154 2.262,3.134 2.262,2.186 L 2.262,1.968 C 2.262,1.021 1.602,0 0.294,0 L 0,0 z M -13.13,40.413 C -13.272,39.303 -14.207,38.742 -15.079,38.742 C -16.027,38.742 -17.047,39.402 -17.047,40.71 L -17.047,42.381 C -17.047,43.072 -16.663,43.695 -16.105,44.047 C -16.759,45.148 -17.133,46.439 -17.133,47.832 C -17.133,51.758 -13.854,55.082 -9.882,55.082 C -5.808,55.082 -2.38,51.907 -2.38,47.748 C -2.38,43.782 -5.551,40.474 -9.521,40.414 L -13.13,40.413 z M -9.684,44.454 C -7.897,44.454 -6.439,45.941 -6.439,47.748 C -6.439,49.596 -7.962,51.041 -9.829,51.041 C -11.599,51.041 -13.074,49.546 -13.074,47.796 C -13.074,45.914 -11.565,44.454 -9.684,44.454 z M -6.395,14.939 C -6.395,16.726 -7.883,18.184 -9.689,18.184 C -11.537,18.184 -12.983,16.661 -12.983,14.795 C -12.983,13.024 -11.488,11.549 -9.737,11.549 C -7.856,11.549 -6.395,13.058 -6.395,14.939 z M -13.098,7.491 C -13.24,6.38 -14.175,5.82 -15.047,5.82 C -15.995,5.82 -17.015,6.48 -17.015,7.788 L -17.015,9.459 C -17.015,10.161 -16.618,10.793 -16.043,11.143 C -16.663,12.205 -17.023,13.435 -17.023,14.741 C -17.023,18.816 -13.848,22.243 -9.689,22.243 C -5.687,22.243 -2.354,19.014 -2.354,14.992 C -2.354,13.705 -2.668,12.489 -3.229,11.427 L 0.596,11.427 C 1.905,11.427 2.369,10.406 2.369,9.459 C 2.369,8.512 1.905,7.491 0.596,7.491 L -13.098,7.491 z M -15.999,65.35 L -6.427,69.377 L -6.427,69.629 C -6.427,70.939 -5.405,71.6 -4.456,71.6 C -3.508,71.6 -2.486,70.939 -2.486,69.629 L -2.486,68.069 C -2.486,67.234 -3.028,66.522 -3.7,66.25 L -11.784,63.164 L -3.686,60.074 C -3.061,59.793 -2.486,59.11 -2.486,58.26 L -2.486,56.699 C -2.486,55.389 -3.508,54.729 -4.456,54.729 C -5.405,54.729 -6.427,55.389 -6.427,56.699 L -6.427,56.951 L -15.999,60.978 C -16.645,61.257 -17.203,61.755 -17.203,63.159 C -17.203,64.571 -16.647,65.071 -15.999,65.35 z M -13.13,24.129 C -13.272,23.019 -14.207,22.459 -15.079,22.459 C -16.027,22.459 -17.047,23.119 -17.047,24.427 L -17.047,26.097 C -17.047,26.788 -16.663,27.411 -16.105,27.764 C -16.759,28.865 -17.133,30.155 -17.133,31.548 C -17.133,35.474 -13.854,38.798 -9.882,38.798 C -5.808,38.798 -2.38,35.624 -2.38,31.464 C -2.38,27.499 -5.551,24.191 -9.521,24.13 L -13.13,24.129 z M -9.684,28.17 C -7.897,28.17 -6.439,29.657 -6.439,31.464 C -6.439,33.312 -7.962,34.757 -9.829,34.757 C -11.599,34.757 -13.074,33.263 -13.074,31.512 C -13.074,29.631 -11.565,28.17 -9.684,28.17 z M -8.988,-7.939 L -15.399,-7.929 C -16.707,-7.929 -17.047,-6.978 -17.047,-5.733 C -17.047,-4.785 -16.707,-3.765 -15.399,-3.765 C -15.272,-3.756 -6.754,-3.751 -6.754,-3.751 C -6.612,-2.64 -5.676,-2.08 -4.804,-2.08 C -3.856,-2.08 -2.835,-2.74 -2.835,-4.048 L -2.835,-5.719 C -2.835,-6.401 -3.212,-7.021 -3.763,-7.376 C -2.836,-8.513 -2.346,-10.106 -2.346,-11.61 C -2.346,-15.813 -5.436,-18.397 -9.272,-18.41 L -13.123,-18.413 C -13.265,-19.524 -14.2,-20.084 -15.073,-20.084 C -16.021,-20.084 -17.041,-19.424 -17.041,-18.116 L -17.041,-16.227 C -17.041,-15.168 -16.133,-14.259 -15.073,-14.259 L -14.546,-14.259 L -9.045,-14.261 C -7.303,-14.261 -5.962,-13.122 -5.962,-11.067 C -5.962,-9.426 -7.328,-7.939 -8.988,-7.939 z M -17.047,0.392 L -17.047,2.062 C -17.047,3.122 -16.139,4.03 -15.079,4.03 L -4.784,4.03 C -3.476,4.03 -2.816,3.01 -2.816,2.062 L -2.816,1.845 C -2.816,0.898 -3.476,-0.123 -4.784,-0.123 L -13.129,-0.123 C -13.271,-1.234 -14.207,-1.794 -15.079,-1.794 C -16.027,-1.794 -17.047,-1.134 -17.047,0.174 L -17.047,0.392" />
      </g>
      <g
         transform="matrix(0,-3.3210903,-3.3210903,0,709.55812,524.65017)"
         id="g99">
        <path
           id="path101"
           style="fill:#1fc4f4;fill-opacity:1;fill-rule:nonzero;stroke:none"
           d="M 0,0 L -3.595,10.65 L -3.82,10.65 C -4.989,10.65 -5.579,11.562 -5.579,12.409 C -5.579,13.256 -4.989,14.168 -3.82,14.168 L -2.427,14.168 C -1.681,14.168 -1.046,13.684 -0.803,13.085 L 1.951,3.763 L 4.711,13.096 C 4.961,13.655 5.571,14.168 6.33,14.168 L 7.724,14.168 C 8.893,14.168 9.483,13.256 9.483,12.409 C 9.483,11.562 8.893,10.65 7.724,10.65 L 7.499,10.65 L 3.903,0 C 3.655,-0.577 3.21,-1.075 1.956,-1.075 C 0.696,-1.075 0.249,-0.579 0,0 z M -8.275,23.902 L -1.521,23.902 C 1.552,23.902 1.789,21.538 1.89,20.356 C 2.059,21.538 2.295,23.902 5.368,23.902 L 12.122,23.902 C 13.54,23.902 14.149,24.543 14.149,25.489 L 14.149,26.333 C 14.149,27.211 14.621,27.853 15.668,27.853 C 16.647,27.853 17.188,27.211 17.188,26.333 L 17.188,23.835 C 17.188,20.897 15.803,19.444 12.696,19.444 L 5.807,19.444 C 3.747,19.444 3.544,18.566 3.544,17.722 C 3.544,16.607 2.734,16.101 1.924,16.101 C 1.113,16.101 0.302,16.607 0.302,17.722 C 0.302,18.566 0.1,19.444 -1.96,19.444 L -8.849,19.444 C -11.956,19.444 -13.341,20.897 -13.341,23.835 L -13.341,26.333 C -13.341,27.211 -12.801,27.853 -11.821,27.853 C -10.774,27.853 -10.301,27.211 -10.301,26.333 L -10.301,25.489 C -10.301,24.543 -9.694,23.902 -8.275,23.902" />
      </g>
    </g>
  </g>
</svg>
